<svg width="21" height="21" viewBox="0 0 21 21" fill="none" xmlns="http://www.w3.org/2000/svg">
<path d="M8.18617 10.5011C8.18617 11.0464 8.42994 11.5693 8.86388 11.9549C9.2978 12.3405 9.88639 12.5572 10.5 12.5572C11.1137 12.5572 11.7021 12.3405 12.1361 11.9549C12.5701 11.5693 12.8139 11.0464 12.8139 10.5011C12.8139 9.95582 12.5701 9.43276 12.1361 9.04717C11.7021 8.66157 11.1137 8.44495 10.5 8.44495C9.88639 8.44495 9.2978 8.66157 8.86388 9.04717C8.42994 9.43276 8.18617 9.95582 8.18617 10.5011Z" stroke="white" stroke-width="1.5" stroke-linecap="round" stroke-linejoin="round"/>
<path d="M8.53522 2.54965C8.66193 2.17402 8.92157 1.8447 9.27559 1.61058C9.62961 1.37645 10.0591 1.25 10.5004 1.25C10.9418 1.25 11.3712 1.37645 11.7252 1.61058C12.0794 1.8447 12.339 2.17402 12.4657 2.54965L13.1475 4.54135C13.2599 4.87193 13.5095 5.15221 13.8458 5.3255C14.1819 5.49879 14.5796 5.55217 14.9584 5.47483L17.2291 5.00741C17.6596 4.92061 18.1102 4.95876 18.5145 5.11627C18.9188 5.27377 19.2555 5.54234 19.4755 5.88252C19.6953 6.22269 19.7866 6.61656 19.736 7.00626C19.6854 7.39598 19.4956 7.76101 19.1943 8.04773L17.5993 9.56789C17.3338 9.82151 17.1863 10.155 17.1863 10.5014C17.1863 10.8478 17.3338 11.1813 17.5993 11.4349L19.1881 12.9578C19.4894 13.2445 19.6793 13.6096 19.7299 13.9993C19.7805 14.389 19.6891 14.7828 19.4693 15.123C19.2494 15.4631 18.9126 15.7318 18.5083 15.8893C18.104 16.0468 17.6534 16.0849 17.2229 15.9981L14.9523 15.5307C14.5734 15.4534 14.1757 15.5067 13.8396 15.68C13.5033 15.8534 13.2537 16.1335 13.1413 16.4642L12.4657 18.4504C12.339 18.826 12.0794 19.1554 11.7252 19.3895C11.3712 19.6236 10.9418 19.75 10.5004 19.75C10.0591 19.75 9.62961 19.6236 9.27559 19.3895C8.92157 19.1554 8.66193 18.826 8.53522 18.4504L7.85187 16.4587C7.73968 16.1282 7.4904 15.8479 7.15447 15.6746C6.81853 15.5014 6.42104 15.4479 6.04245 15.5252L3.77027 15.9926C3.33974 16.0794 2.88924 16.0413 2.48492 15.8838C2.0806 15.7263 1.74377 15.4576 1.52387 15.1175C1.304 14.7773 1.21265 14.3835 1.26326 13.9938C1.31387 13.6041 1.50376 13.2391 1.80505 12.9523L3.39543 11.4294C3.66085 11.1758 3.8084 10.8423 3.8084 10.4959C3.8084 10.1495 3.66085 9.81603 3.39543 9.56241L1.80505 8.04499C1.50376 7.75827 1.31387 7.39324 1.26326 7.00352C1.21265 6.61382 1.304 6.21994 1.52387 5.87978C1.74377 5.5396 2.0806 5.27104 2.48492 5.11353C2.88924 4.95602 3.33974 4.91787 3.77027 5.00466L6.04245 5.47209C6.42104 5.54937 6.81853 5.49596 7.15447 5.32265C7.4904 5.14933 7.73968 4.86908 7.85187 4.53861L8.53522 2.54965Z" stroke="white" stroke-width="1.5" stroke-linecap="round" stroke-linejoin="round"/>
</svg>
