<svg width="23" height="23" viewBox="0 0 23 23" fill="none" xmlns="http://www.w3.org/2000/svg">
<path d="M8.81958 11.5013C8.81958 12.1203 9.08312 12.7139 9.55224 13.1516C10.0213 13.5893 10.6577 13.8353 11.321 13.8353C11.9844 13.8353 12.6206 13.5893 13.0897 13.1516C13.559 12.7139 13.8225 12.1203 13.8225 11.5013C13.8225 10.8824 13.559 10.2886 13.0897 9.85093C12.6206 9.41322 11.9844 9.16733 11.321 9.16733C10.6577 9.16733 10.0213 9.41322 9.55224 9.85093C9.08312 10.2886 8.81958 10.8824 8.81958 11.5013Z" stroke="#C0C0C0" stroke-width="1.5" stroke-linecap="round" stroke-linejoin="round"/>
<path d="M9.19686 2.47537C9.33384 2.04898 9.61453 1.67516 9.99725 1.40939C10.38 1.14363 10.8443 1.00009 11.3214 1.00009C11.7985 1.00009 12.2628 1.14363 12.6455 1.40939C13.0284 1.67516 13.3091 2.04898 13.446 2.47537L14.1831 4.73622C14.3046 5.11148 14.5745 5.42963 14.938 5.62634C15.3014 5.82305 15.7313 5.88364 16.1409 5.79585L18.5956 5.26526C19.0611 5.16673 19.5482 5.21003 19.9853 5.38883C20.4223 5.56762 20.7864 5.87248 21.0242 6.25863C21.2618 6.64476 21.3605 7.09186 21.3058 7.53423C21.2511 7.97661 21.0459 8.39097 20.7202 8.71644L18.9958 10.442C18.7088 10.7299 18.5494 11.1085 18.5494 11.5017C18.5494 11.8949 18.7088 12.2735 18.9958 12.5613L20.7135 14.29C21.0392 14.6155 21.2445 15.0299 21.2992 15.4723C21.3539 15.9146 21.2552 16.3617 21.0175 16.7479C20.7797 17.1339 20.4157 17.4389 19.9786 17.6177C19.5415 17.7964 19.0544 17.8397 18.5889 17.7412L16.1342 17.2106C15.7246 17.1228 15.2947 17.1834 14.9313 17.3801C14.5678 17.5769 14.298 17.8949 14.1764 18.2702L13.446 20.5249C13.3091 20.9512 13.0284 21.3251 12.6455 21.5909C12.2628 21.8566 11.7985 22.0001 11.3214 22.0001C10.8443 22.0001 10.38 21.8566 9.99725 21.5909C9.61453 21.3251 9.33384 20.9512 9.19686 20.5249L8.4581 18.264C8.33681 17.8889 8.06732 17.5707 7.70415 17.374C7.34097 17.1773 6.91125 17.1166 6.50197 17.2044L4.04555 17.735C3.58012 17.8335 3.09308 17.7902 2.65598 17.6114C2.21888 17.4326 1.85474 17.1277 1.61702 16.7416C1.37931 16.3554 1.28056 15.9084 1.33527 15.466C1.38998 15.0237 1.59527 14.6093 1.92099 14.2838L3.64032 12.5551C3.92727 12.2672 4.08677 11.8887 4.08677 11.4955C4.08677 11.1023 3.92727 10.7237 3.64032 10.4358L1.92099 8.71332C1.59527 8.38786 1.38998 7.9735 1.33527 7.53112C1.28056 7.08875 1.37931 6.64165 1.61702 6.25552C1.85474 5.86937 2.21888 5.56452 2.65598 5.38572C3.09308 5.20692 3.58012 5.16362 4.04555 5.26214L6.50197 5.79274C6.91125 5.88046 7.34097 5.81983 7.70415 5.6231C8.06732 5.42636 8.33681 5.10824 8.4581 4.73311L9.19686 2.47537Z" stroke="#C0C0C0" stroke-width="1.5" stroke-linecap="round" stroke-linejoin="round"/>
</svg>
