<svg width="21" height="21" viewBox="0 0 21 21" fill="none" xmlns="http://www.w3.org/2000/svg">
<path d="M8.18616 10.501C8.18616 11.0463 8.42993 11.5692 8.86386 11.9548C9.29779 12.3404 9.88638 12.5571 10.5 12.5571C11.1136 12.5571 11.7021 12.3404 12.136 11.9548C12.5701 11.5692 12.8138 11.0463 12.8138 10.501C12.8138 9.95569 12.5701 9.43264 12.136 9.04705C11.7021 8.66144 11.1136 8.44482 10.5 8.44482C9.88638 8.44482 9.29779 8.66144 8.86386 9.04705C8.42993 9.43264 8.18616 9.95569 8.18616 10.501Z" stroke="white" stroke-width="1.5" stroke-linecap="round" stroke-linejoin="round"/>
<path d="M8.53521 2.54965C8.66191 2.17402 8.92156 1.8447 9.27557 1.61058C9.62959 1.37645 10.0591 1.25 10.5004 1.25C10.9418 1.25 11.3712 1.37645 11.7252 1.61058C12.0794 1.8447 12.339 2.17402 12.4656 2.54965L13.1475 4.54135C13.2599 4.87193 13.5095 5.15221 13.8458 5.3255C14.1819 5.49879 14.5796 5.55217 14.9584 5.47483L17.2291 5.00741C17.6596 4.92061 18.1102 4.95876 18.5145 5.11627C18.9188 5.27377 19.2555 5.54234 19.4755 5.88252C19.6953 6.22269 19.7866 6.61656 19.736 7.00626C19.6854 7.39598 19.4955 7.76101 19.1943 8.04773L17.5993 9.56789C17.3338 9.82151 17.1863 10.155 17.1863 10.5014C17.1863 10.8478 17.3338 11.1813 17.5993 11.4349L19.1881 12.9578C19.4894 13.2445 19.6793 13.6096 19.7298 13.9993C19.7804 14.389 19.6891 14.7828 19.4693 15.123C19.2493 15.4631 18.9126 15.7318 18.5083 15.8893C18.104 16.0468 17.6534 16.0849 17.2229 15.9981L14.9522 15.5307C14.5734 15.4534 14.1757 15.5067 13.8396 15.68C13.5033 15.8534 13.2537 16.1335 13.1413 16.4642L12.4656 18.4504C12.339 18.826 12.0794 19.1554 11.7252 19.3895C11.3712 19.6236 10.9418 19.75 10.5004 19.75C10.0591 19.75 9.62959 19.6236 9.27557 19.3895C8.92156 19.1554 8.66191 18.826 8.53521 18.4504L7.85186 16.4587C7.73967 16.1282 7.49039 15.8479 7.15445 15.6746C6.81851 15.5014 6.42103 15.4479 6.04244 15.5252L3.77025 15.9926C3.33973 16.0794 2.88922 16.0413 2.4849 15.8838C2.08058 15.7263 1.74375 15.4576 1.52386 15.1175C1.30398 14.7773 1.21263 14.3835 1.26324 13.9938C1.31385 13.6041 1.50374 13.2391 1.80504 12.9523L3.39541 11.4294C3.66084 11.1758 3.80838 10.8423 3.80838 10.4959C3.80838 10.1495 3.66084 9.81603 3.39541 9.56241L1.80504 8.04499C1.50374 7.75827 1.31385 7.39324 1.26324 7.00352C1.21263 6.61382 1.30398 6.21994 1.52386 5.87978C1.74375 5.5396 2.08058 5.27104 2.4849 5.11353C2.88922 4.95602 3.33973 4.91787 3.77025 5.00466L6.04244 5.47209C6.42103 5.54937 6.81851 5.49596 7.15445 5.32265C7.49039 5.14933 7.73967 4.86908 7.85186 4.53861L8.53521 2.54965Z" stroke="white" stroke-width="1.5" stroke-linecap="round" stroke-linejoin="round"/>
</svg>
