<svg width="15" height="13" viewBox="0 0 15 13" fill="none" xmlns="http://www.w3.org/2000/svg">
<path d="M3.84375 4.46875C3.84375 5.43844 4.22896 6.36843 4.91464 7.05413C5.60032 7.73977 6.53031 8.125 7.5 8.125C8.46969 8.125 9.39968 7.73977 10.0854 7.05413C10.771 6.36843 11.1563 5.43844 11.1563 4.46875C11.1563 3.49905 10.771 2.56907 10.0854 1.88339C9.39968 1.19771 8.46969 0.8125 7.5 0.8125C6.53031 0.8125 5.60032 1.19771 4.91464 1.88339C4.22896 2.56907 3.84375 3.49905 3.84375 4.46875Z" stroke="#949494" stroke-linecap="round" stroke-linejoin="round"/>
<path d="M1.40625 8.53125C1.40625 9.50094 1.79146 10.4309 2.47714 11.1166C3.16282 11.8023 4.0928 12.1875 5.0625 12.1875C6.0322 12.1875 6.96218 11.8023 7.64788 11.1166C8.33352 10.4309 8.71875 9.50094 8.71875 8.53125C8.71875 7.56156 8.33352 6.63157 7.64788 5.94588C6.96218 5.26021 6.0322 4.875 5.0625 4.875C4.0928 4.875 3.16282 5.26021 2.47714 5.94588C1.79146 6.63157 1.40625 7.56156 1.40625 8.53125Z" stroke="#949494" stroke-linecap="round" stroke-linejoin="round"/>
<path d="M6.6875 8.53125C6.6875 9.01138 6.78207 9.48686 6.96581 9.93043C7.14954 10.3741 7.41886 10.7771 7.75838 11.1166C8.09789 11.4561 8.50095 11.7255 8.94457 11.9092C9.38814 12.0929 9.86362 12.1875 10.3438 12.1875C10.8239 12.1875 11.2994 12.0929 11.7429 11.9092C12.1866 11.7255 12.5896 11.4561 12.9291 11.1166C13.2686 10.7771 13.538 10.3741 13.7217 9.93043C13.9054 9.48686 14 9.01138 14 8.53125C14 8.05112 13.9054 7.57564 13.7217 7.13207C13.538 6.68845 13.2686 6.28539 12.9291 5.94588C12.5896 5.60636 12.1866 5.33706 11.7429 5.15331C11.2994 4.96957 10.8239 4.875 10.3438 4.875C9.86362 4.875 9.38814 4.96957 8.94457 5.15331C8.50095 5.33706 8.09789 5.60636 7.75838 5.94588C7.41886 6.28539 7.14954 6.68845 6.96581 7.13207C6.78207 7.57564 6.6875 8.05112 6.6875 8.53125Z" stroke="#949494" stroke-linecap="round" stroke-linejoin="round"/>
</svg>
