<svg width="13" height="13" viewBox="0 0 13 13" fill="none" xmlns="http://www.w3.org/2000/svg">
<path d="M0.541748 2.70801H12.4584" stroke="#AB0505" stroke-linecap="round" stroke-linejoin="round"/>
<path d="M7.71875 0.541992H5.28125C5.06576 0.541992 4.8591 0.627597 4.70673 0.779968C4.55435 0.932339 4.46875 1.13901 4.46875 1.35449V2.70866H8.53125V1.35449C8.53125 1.13901 8.44567 0.932339 8.2933 0.779968C8.14093 0.627597 7.93423 0.541992 7.71875 0.541992Z" stroke="#AB0505" stroke-linecap="round" stroke-linejoin="round"/>
<path d="M5.28125 9.61426V5.55176" stroke="#AB0505" stroke-linecap="round" stroke-linejoin="round"/>
<path d="M7.71875 9.61426V5.55176" stroke="#AB0505" stroke-linecap="round" stroke-linejoin="round"/>
<path d="M10.2158 11.7105C10.2008 11.9141 10.1091 12.1044 9.95935 12.2431C9.80964 12.3817 9.61285 12.4585 9.40875 12.458H3.59125C3.38713 12.4585 3.19038 12.3817 3.04063 12.2431C2.89088 12.1044 2.79924 11.9141 2.78417 11.7105L2.03125 2.70801H10.9688L10.2158 11.7105Z" stroke="#AB0505" stroke-linecap="round" stroke-linejoin="round"/>
</svg>
