<svg width="14" height="16" viewBox="0 0 14 16" fill="none" xmlns="http://www.w3.org/2000/svg">
<path d="M13.4999 14.5625L12.7128 12.5V8.99997C12.7128 7.66663 10.1326 6.23997 9.14801 5.49997M10.4584 9.86197L7.9814 7.9133C7.81551 7.75037 7.59042 7.65883 7.35569 7.65883C7.12102 7.65883 6.89593 7.75037 6.72998 7.9133C6.5641 8.07623 6.47083 8.29723 6.47083 8.52763C6.47083 8.6417 6.49372 8.7547 6.53823 8.8601C6.58263 8.9655 6.64782 9.0613 6.72998 9.14197L9.12961 11.8V13.4666C9.12961 14.254 10.2751 15.4966 10.2751 15.4966M9.12153 11.9853C9.04765 12.4091 8.82351 12.7936 8.48876 13.0708C8.154 13.348 7.73016 13.5 7.29227 13.5H2.8556C2.36343 13.5 1.89141 13.308 1.5434 12.9663C1.19538 12.6246 0.999863 12.1612 0.999863 11.678V2.3213C0.999863 2.08206 1.04787 1.84517 1.14114 1.62416C1.23441 1.40314 1.37111 1.20232 1.54344 1.03319C1.71577 0.864056 1.92035 0.729909 2.14549 0.638419C2.37064 0.546928 2.61193 0.499882 2.8556 0.49997H7.11097C7.65119 0.49997 8.16935 0.710683 8.55136 1.08576C8.93337 1.46083 9.14801 1.96954 9.14801 2.49997V8.8333M0.999863 10.5H5.07394M3.81232 6.22931C3.95926 6.41907 4.15068 6.57119 4.37033 6.67277C4.58997 6.7743 4.83135 6.8223 5.07393 6.81263M5.07393 6.81263C5.84732 6.81263 6.47473 6.35065 6.47473 5.78131C6.47473 5.21198 5.84732 4.74998 5.07393 4.74998C4.30053 4.74998 3.67381 4.28798 3.67381 3.71798C3.67381 3.14798 4.30053 2.68665 5.07393 2.68665M5.07393 6.81263L5.07394 7.49997M5.07393 2.68665C5.31649 2.67716 5.5578 2.72523 5.77742 2.82678C5.99703 2.92832 6.18848 3.08036 6.33553 3.26998M5.07393 2.68665L5.07394 1.99997" stroke="#C0C0C0" stroke-linecap="round" stroke-linejoin="round"/>
</svg>
