<svg width="23" height="22" viewBox="0 0 23 22" fill="none" xmlns="http://www.w3.org/2000/svg">
<path d="M22.1723 10.3966L19.5363 9.54694C17.8502 8.99059 16.8624 7.6262 16.3987 5.91172L15.2387 0.261145C15.2084 0.149496 15.1346 0 14.9076 0C14.7164 0 14.6067 0.149496 14.5764 0.261145L13.4164 5.91361C12.9509 7.62809 11.9649 8.99248 10.2789 9.54883L7.6428 10.3985C7.27001 10.5196 7.26433 11.0457 7.63523 11.1725L10.2902 12.0865C11.9706 12.6447 12.9509 14.0072 13.4164 15.7141L14.5783 21.3023C14.6086 21.4139 14.671 21.6145 14.9094 21.6145C15.1611 21.6145 15.2103 21.4139 15.2406 21.3023L16.4025 15.7141C16.868 14.0053 17.8483 12.6428 19.5287 12.0865L22.1837 11.1725C22.5508 11.0438 22.5451 10.5177 22.1723 10.3966Z" fill="#FDD835"/>
<path d="M22.4221 10.6331C22.3804 10.5291 22.2991 10.4382 22.1723 10.3966L19.5362 9.54693C17.8501 8.99058 16.8623 7.62619 16.3987 5.91172L15.2387 0.261139C15.2216 0.196799 15.1611 0.0794726 15.0911 0.0454102L15.4658 5.7168C15.7439 8.30555 15.9824 9.52422 18.0488 9.87999C19.8238 10.1865 21.8771 10.5385 22.4221 10.6331Z" fill="#FFEE58"/>
<path d="M22.4278 10.9285L17.8558 11.9768C16.2454 12.3856 15.3579 13.3185 15.3579 15.7597L14.9094 21.6146C15.0627 21.5995 15.1876 21.5162 15.2406 21.3024L16.4025 15.7142C16.868 14.0054 17.8483 12.6429 19.5287 12.0866L22.1836 11.1726C22.3085 11.1272 22.388 11.0344 22.4278 10.9285Z" fill="#F4B400"/>
<path d="M7.07506 15.3129C5.49873 14.7925 5.35491 14.2059 5.08998 13.2162L4.42955 10.9C4.38981 10.7505 3.99998 10.7505 3.95835 10.9L3.50986 13.0402C3.24304 14.0261 2.67533 14.8096 1.70644 15.1294L0.162282 15.7993C-0.0515542 15.8693 -0.0553389 16.1721 0.158497 16.244L1.71401 16.7947C2.67912 17.1145 3.24304 17.8979 3.51175 18.88L3.96024 20.9276C4.00187 21.0771 4.38981 21.0771 4.42955 20.9276L4.95562 18.8895C5.22244 17.9017 5.63119 17.1164 6.9426 16.7947L8.40349 16.244C8.61733 16.1702 8.61544 15.8674 8.39971 15.7974L7.07506 15.3129Z" fill="#FDD835"/>
<path d="M4.55436 13.1822C4.71521 14.6695 4.79658 15.0821 6.00201 15.3905L8.51317 15.8807C8.48668 15.8447 8.44883 15.8144 8.39774 15.7993L7.07309 15.3129C5.68977 14.8399 5.30752 14.2381 5.04827 13.0345C4.78901 11.831 4.51273 11.0457 4.51273 11.0457C4.41622 10.7864 4.27808 10.7997 4.27808 10.7997L4.55436 13.1822Z" fill="#FFEE58"/>
<path d="M4.59983 18.3748C4.59983 16.9725 5.36623 16.278 6.58491 16.278L8.48105 16.2004C8.48105 16.2004 8.37129 16.3462 8.18017 16.3916L6.94257 16.7946C5.89231 17.2166 5.41354 17.4286 5.08806 18.8649C5.08806 18.8649 4.66795 20.5358 4.58847 20.7118C4.47872 20.9578 4.34814 21.0089 4.34814 21.0089L4.59983 18.3748Z" fill="#F4B400"/>
<path d="M10.468 4.21038C10.5739 4.17443 10.5702 4.02304 10.4623 3.99276L9.00139 3.59915C8.69483 3.51589 8.45639 3.27935 8.36934 2.97468L7.79407 0.599768C7.76568 0.484334 7.60105 0.484334 7.57266 0.60166L7.03145 2.96711C6.94818 3.28124 6.70218 3.52346 6.38805 3.60483L4.93661 3.98141C4.82874 4.00979 4.82118 4.16118 4.92715 4.19903L6.45806 4.72889C6.73246 4.82351 6.9444 5.04681 7.02766 5.32498L7.57455 7.51822C7.60294 7.63176 7.76568 7.63366 7.79407 7.51822L8.35988 5.31741C8.44504 5.03924 8.65887 4.81783 8.93516 4.72511L10.468 4.21038Z" fill="#F4B400" stroke="#F4B400" stroke-width="0.189236" stroke-miterlimit="10"/>
</svg>
