<svg width="20" height="20" viewBox="0 0 20 20" fill="none" xmlns="http://www.w3.org/2000/svg">
<path d="M19.3751 8.25013L10.2276 17.3984C9.17263 18.4534 7.74188 19.046 6.25003 19.046C4.75818 19.046 3.32743 18.4534 2.27253 17.3984C1.21763 16.3436 0.625 14.9129 0.625 13.4209C0.625 11.9291 1.21763 10.4984 2.27253 9.44343L9.78588 1.93096C10.1318 1.5728 10.5456 1.28712 11.0031 1.09059C11.4606 0.894052 11.9527 0.790601 12.4506 0.786274C12.9486 0.781948 13.4423 0.876827 13.9032 1.06539C14.3641 1.25394 14.7827 1.53239 15.1349 1.88449C15.487 2.23658 15.7654 2.65528 15.954 3.11614C16.1425 3.57699 16.2374 4.07079 16.2331 4.56872C16.2287 5.06664 16.1253 5.55872 15.9287 6.01623C15.7322 6.47374 15.4466 6.88753 15.0884 7.23346L7.57587 14.7501C7.22229 15.0918 6.74869 15.2808 6.25708 15.2766C5.76545 15.2724 5.29515 15.0753 4.94745 14.7277C4.59976 14.3801 4.40249 13.9099 4.39814 13.4183C4.39379 12.9266 4.58271 12.453 4.9242 12.0993L12.4376 4.58346" stroke="white" stroke-opacity="0.7" stroke-width="1.25" stroke-linecap="round" stroke-linejoin="round"/>
</svg>
