<svg width="35" height="35" viewBox="0 0 35 35" fill="none" xmlns="http://www.w3.org/2000/svg">
<path d="M10.9375 12.0312C10.0672 12.0312 9.23265 12.3769 8.61729 12.9923C8.00193 13.6077 7.65623 14.4423 7.65623 15.3125V19.6875C7.65623 20.5577 8.00193 21.3923 8.61729 22.0077C9.23265 22.623 10.0672 22.9688 10.9375 22.9688C11.8077 22.9688 12.6423 22.623 13.2577 22.0077C13.873 21.3923 14.2187 20.5577 14.2187 19.6875V15.3125C14.2187 14.4423 13.873 13.6077 13.2577 12.9923C12.6423 12.3769 11.8077 12.0312 10.9375 12.0312ZM10.9375 12.0312C11.8077 12.0312 12.6423 11.6856 13.2577 11.0702C13.873 10.4548 14.2187 9.62025 14.2187 8.75V4.375C14.2187 3.50475 13.873 2.67016 13.2577 2.05481C12.6423 1.43945 11.8077 1.09375 10.9375 1.09375C10.0672 1.09375 9.23265 1.43945 8.61729 2.05481C8.00193 2.67016 7.65623 3.50475 7.65623 4.375V8.75C7.65623 9.62025 8.00193 10.4548 8.61729 11.0702C9.23265 11.6856 10.0672 12.0312 10.9375 12.0312ZM12.2281 31.7712C11.9061 32.5946 11.2707 33.2567 10.4611 33.6121C9.65156 33.9675 8.73407 33.9873 7.90998 33.6671C7.0973 33.3193 6.45572 32.6633 6.12602 31.8431C5.79631 31.023 5.80538 30.1055 6.15123 29.2921L7.85748 25.1096C8.0123 24.6994 8.24771 24.3244 8.5498 24.0068C8.85189 23.689 9.21457 23.4351 9.61639 23.2598C10.0182 23.0847 10.4511 22.9916 10.8894 22.9864C11.3278 22.9811 11.7628 23.0638 12.1687 23.2294C12.5746 23.395 12.9432 23.6402 13.2528 23.9506C13.5624 24.261 13.8067 24.6302 13.9712 25.0365C14.1358 25.4428 14.2173 25.878 14.211 26.3164C14.2047 26.7547 14.1106 27.1873 13.9344 27.5887L12.2281 31.7712ZM27.545 31.7711C27.6999 32.1813 27.9352 32.5563 28.2373 32.8739C28.5394 33.1917 28.9021 33.4456 29.3039 33.6209C29.7058 33.796 30.1386 33.889 30.577 33.8943C31.0152 33.8995 31.4503 33.8169 31.8561 33.6513C32.2621 33.4857 32.6306 33.2405 32.9402 32.93C33.2498 32.6197 33.4941 32.2505 33.6588 31.8442C33.8233 31.4379 33.9048 31.0027 33.8985 30.5643C33.8922 30.126 33.7982 29.6934 33.6219 29.2919L31.9142 25.108C31.7615 24.6951 31.5273 24.317 31.2255 23.9964C30.9236 23.6759 30.5605 23.4192 30.1576 23.2419C29.7545 23.0646 29.3201 22.9701 28.8798 22.9641C28.4395 22.9581 28.0026 23.0408 27.5949 23.207C27.1873 23.3734 26.8173 23.62 26.5068 23.9324C26.1965 24.2446 25.952 24.6162 25.7883 25.0249C25.6244 25.4335 25.5444 25.871 25.553 26.3111C25.5618 26.7514 25.6589 27.1854 25.8387 27.5871L27.545 31.7711ZM27.545 14.1663C27.6999 13.7562 27.9352 13.3812 28.2373 13.0636C28.5394 12.7459 28.9021 12.4919 29.3039 12.3167C29.7058 12.1415 30.1386 12.0485 30.577 12.0432C31.0152 12.038 31.4503 12.1206 31.8561 12.2862C32.2621 12.4518 32.6306 12.697 32.9402 13.0074C33.2498 13.3178 33.4941 13.687 33.6588 14.0933C33.8233 14.4996 33.9048 14.9348 33.8985 15.3732C33.8922 15.8115 33.7982 16.2441 33.6219 16.6456L31.9142 20.8295C31.7615 21.2424 31.5273 21.6205 31.2255 21.9411C30.9236 22.2616 30.5605 22.5183 30.1576 22.6956C29.7545 22.8729 29.3201 22.9674 28.8798 22.9734C28.4395 22.9794 28.0026 22.8967 27.5949 22.7305C27.1873 22.5641 26.8173 22.3175 26.5068 22.0051C26.1965 21.6929 25.952 21.3213 25.7883 20.9126C25.6244 20.504 25.5444 20.0665 25.553 19.6264C25.5618 19.1861 25.6589 18.7521 25.8387 18.3504L27.545 14.1663ZM22.8958 19.6875C23.8079 19.6471 24.6989 19.9697 25.3737 20.5847C26.0486 21.1996 26.4523 22.0569 26.4964 22.9688C26.4523 23.8806 26.0486 24.738 25.3737 25.3528C24.6989 25.9678 23.8079 26.2904 22.8958 26.25H16.8962C15.9843 26.2904 15.0934 25.9678 14.4189 25.3528C13.7443 24.7379 13.3409 23.8805 13.2971 22.9688C13.3409 22.057 13.7443 21.1996 14.4189 20.5847C15.0934 19.9697 15.9843 19.6471 16.8962 19.6875H22.8958ZM1.09373 12.0313C1.09373 13.0106 1.48276 13.9498 2.17525 14.6423C2.86772 15.3348 3.80692 15.7238 4.78623 15.7238C5.76555 15.7238 6.70475 15.3348 7.39722 14.6423C8.08971 13.9498 8.47873 13.0106 8.47873 12.0313C8.47873 11.052 8.08971 10.1128 7.39722 9.42028C6.70475 8.7278 5.76555 8.33878 4.78623 8.33878C3.80692 8.33878 2.86772 8.7278 2.17525 9.42028C1.48276 10.1128 1.09373 11.052 1.09373 12.0313Z" stroke="#A6A6A6" stroke-width="1.5" stroke-linecap="round" stroke-linejoin="round"/>
</svg>
