<svg width="30" height="28" viewBox="0 0 30 28" fill="none" xmlns="http://www.w3.org/2000/svg">
<path d="M29 27.1715C29.4142 27.1715 29.75 26.8357 29.75 26.4215C29.75 26.0073 29.4142 25.6715 29 25.6715V27.1715ZM1 25.6715C0.585786 25.6715 0.25 26.0073 0.25 26.4215C0.25 26.8357 0.585786 27.1715 1 27.1715V25.6715ZM17.6237 1.92035L17.1552 2.506V2.506L17.6237 1.92035ZM12.3763 1.92035L11.9078 1.3347V1.3347L12.3763 1.92035ZM7.15666 7.05651C7.48011 6.79776 7.53255 6.32579 7.27379 6.00234C7.01503 5.67889 6.54307 5.62645 6.21962 5.88521L7.15666 7.05651ZM10.8131 2.21046C10.4896 2.46922 10.4372 2.94119 10.6959 3.26464C10.9547 3.58808 11.4267 3.64052 11.7501 3.38177L10.8131 2.21046ZM3.04978 26.4215C3.04978 26.8357 3.38557 27.1715 3.79978 27.1715C4.21399 27.1715 4.54978 26.8357 4.54978 26.4215H3.04978ZM4.54978 8.92154C4.54978 8.50732 4.21399 8.17154 3.79978 8.17154C3.38557 8.17154 3.04978 8.50732 3.04978 8.92154H4.54978ZM26.95 20.1215C26.95 19.7073 26.6142 19.3715 26.2 19.3715C25.7858 19.3715 25.45 19.7073 25.45 20.1215H26.95ZM25.45 26.4215C25.45 26.8357 25.7858 27.1715 26.2 27.1715C26.6142 27.1715 26.95 26.8357 26.95 26.4215H25.45ZM26.95 8.92148C26.95 8.50727 26.6142 8.17148 26.2 8.17148C25.7858 8.17148 25.45 8.50727 25.45 8.92148H26.95ZM25.45 14.5215C25.45 14.9357 25.7858 15.2715 26.2 15.2715C26.6142 15.2715 26.95 14.9357 26.95 14.5215H25.45ZM29 25.6715H1V27.1715H29V25.6715ZM29.4685 10.4357L18.0922 1.3347L17.1552 2.506L28.5315 11.607L29.4685 10.4357ZM12.8448 2.506C14.1048 1.498 15.8952 1.498 17.1552 2.506L18.0922 1.3347C16.2844 -0.111567 13.7156 -0.111567 11.9078 1.3347L12.8448 2.506ZM1.46852 11.607L7.15666 7.05651L6.21962 5.88521L0.531479 10.4357L1.46852 11.607ZM11.7501 3.38177L12.8448 2.506L11.9078 1.3347L10.8131 2.21046L11.7501 3.38177ZM20.65 3.6051V1.93677H19.15V3.6051H20.65ZM20.5153 2.07151L24.1847 2.07151L24.1847 0.571509L20.5153 0.571512V2.07151ZM24.05 1.93677V7.52151H25.55V1.93677H24.05ZM4.54978 26.4215V8.92154H3.04978V26.4215H4.54978ZM25.45 20.1215V26.4215H26.95V20.1215H25.45ZM25.45 8.92148V14.5215H26.95V8.92148H25.45ZM18.4499 19.4215V26.4215H19.9499V19.4215H18.4499ZM11.5499 26.4215V19.4215H10.0499V26.4215H11.5499ZM14.9999 15.9715C16.011 15.9715 16.694 15.9731 17.2042 16.0417C17.6929 16.1074 17.9095 16.222 18.0545 16.3669L19.1151 15.3063C18.645 14.8362 18.0591 14.6432 17.4041 14.5551C16.7706 14.4699 15.9686 14.4715 14.9999 14.4715V15.9715ZM19.9499 19.4215C19.9499 18.4528 19.9515 17.6508 19.8663 17.0173C19.7782 16.3623 19.5853 15.7764 19.1151 15.3063L18.0545 16.3669C18.1994 16.5119 18.314 16.7285 18.3797 17.2172C18.4483 17.7275 18.4499 18.4104 18.4499 19.4215H19.9499ZM14.9999 14.4715C14.0311 14.4715 13.2291 14.4699 12.5957 14.5551C11.9407 14.6432 11.3548 14.8362 10.8846 15.3063L11.9453 16.3669C12.0903 16.222 12.3069 16.1074 12.7956 16.0417C13.3058 15.9731 13.9887 15.9715 14.9999 15.9715V14.4715ZM17.0498 8.92151C17.0498 10.0537 16.132 10.9715 14.9998 10.9715V12.4715C16.9604 12.4715 18.5498 10.8821 18.5498 8.92151H17.0498ZM14.9998 10.9715C13.8676 10.9715 12.9498 10.0537 12.9498 8.92151H11.4498C11.4498 10.8821 13.0392 12.4715 14.9998 12.4715V10.9715ZM12.9498 8.92151C12.9498 7.78933 13.8676 6.87151 14.9998 6.87151V5.37151C13.0392 5.37151 11.4498 6.9609 11.4498 8.92151H12.9498ZM14.9998 6.87151C16.132 6.87151 17.0498 7.78933 17.0498 8.92151H18.5498C18.5498 6.9609 16.9604 5.37151 14.9998 5.37151V6.87151ZM24.1847 2.07151C24.1103 2.07151 24.05 2.01118 24.05 1.93677H25.55C25.55 1.18276 24.9387 0.571508 24.1847 0.571509L24.1847 2.07151ZM20.65 1.93677C20.65 2.01119 20.5897 2.07151 20.5153 2.07151V0.571512C19.7612 0.571512 19.15 1.18276 19.15 1.93677H20.65Z" fill="#A6A6A6"/>
</svg>
