<svg width="15" height="15" viewBox="0 0 15 15" fill="none" xmlns="http://www.w3.org/2000/svg">
<path d="M1 7.5C1 9.2239 1.68482 10.8772 2.90381 12.0962C4.12279 13.3152 5.7761 14 7.5 14M1 7.5C1 5.7761 1.68482 4.12279 2.90381 2.90381C4.12279 1.68482 5.7761 1 7.5 1M1 7.5H14M7.5 14C9.2239 14 10.8772 13.3152 12.0962 12.0962C13.3152 10.8772 14 9.2239 14 7.5M7.5 14C10.75 9.6667 10.75 5.33333 7.5 1M7.5 14C4.25 9.6667 4.25 5.33333 7.5 1M14 7.5C14 5.7761 13.3152 4.12279 12.0962 2.90381C10.8772 1.68482 9.2239 1 7.5 1" stroke="#C0C0C0" stroke-width="1.5" stroke-linecap="round" stroke-linejoin="round"/>
</svg>
