<svg width="431" height="813" viewBox="0 0 431 813" fill="none" xmlns="http://www.w3.org/2000/svg">
<path fill-rule="evenodd" clip-rule="evenodd" d="M114.896 3.54571C118.211 7.32071 118.89 11.5387 116.989 16.5387C116.433 18.0007 112.143 23.1837 107.455 28.0567C95.912 40.0557 93.696 44.9097 93.169 59.3447C92.699 72.2137 93.74 78.3527 99.217 95.0107C102.87 106.12 103.337 108.624 103.414 117.511C103.515 129.295 101.855 133.571 95.194 138.677C88.539 143.78 82.774 145.623 47.535 153.914C42.605 155.074 35.652 157.389 32.085 159.059C19.844 164.787 0 179.334 0 182.579C0 183.348 2.137 181.911 4.75 179.386C14.031 170.416 32.141 159.638 43 156.624C46.025 155.784 54.8 153.675 62.5 151.938C89.69 145.805 99.26 140.813 103.561 130.519C105.894 124.936 105.672 111.417 103.109 103.011C102.019 99.4357 99.96 92.7007 98.534 88.0447C93.056 70.1617 92.852 53.1457 97.988 42.5357C99.187 40.0587 103.922 34.0187 108.51 29.1147C113.098 24.2107 117.56 18.8287 118.426 17.1547C121.135 11.9157 120.291 7.29971 115.701 2.26071C112.304 -1.46829 111.551 -0.265291 114.896 3.54571ZM225.94 2.44671C227.199 3.78671 231.215 6.43771 234.864 8.33871C252.997 17.7797 281.426 24.5587 336.31 32.5257C356.342 35.4337 382.032 40.8567 408 47.6567C417.625 50.1777 426.625 52.4157 428 52.6297C434.751 53.6797 422.715 49.6997 406.829 45.6287C380.482 38.8757 353.796 33.4547 330 30.0207C277.945 22.5077 243.697 13.4197 229.748 3.41771C224.156 -0.591291 222.749 -0.950291 225.94 2.44671ZM288.128 1.74671C290.646 4.93371 293.454 7.03771 299 9.89671C313.014 17.1197 334.189 22.2197 378.332 29.0027C389.239 30.6787 405.327 33.7737 414.082 35.8787C422.837 37.9847 430 39.3817 430 38.9837C430 37.4817 400.335 30.9177 376.241 27.0887C324.748 18.9047 302.196 12.6037 292.254 3.62071C288.051 -0.175291 285.799 -1.19829 288.128 1.74671ZM351 1.28771C351 2.79771 353.763 6.97871 355.954 8.78471C362.463 14.1497 377.217 18.9107 401.312 23.4237C427.091 28.2517 430 28.5737 430 26.6047C430 25.7277 429.651 25.0107 429.224 25.0107C426.549 25.0107 391.847 18.5087 383.949 16.5277C366.697 12.1997 356.078 6.98171 354.518 2.06571C353.809 -0.168291 351 -0.789291 351 1.28771ZM417.464 2.29971C416.511 6.09471 418.693 9.85971 423.674 13.0187C428.566 16.1217 430 16.6077 430 15.1627C430 14.6957 428.151 13.4807 425.891 12.4617C420.872 10.1987 418.625 7.01871 419.213 3.01271C419.727 -0.489291 418.309 -1.06729 417.464 2.29971ZM3.5 12.0627C1.3 12.4857 8.275 12.6057 19 12.3297C39.44 11.8037 56.15 12.9747 64.787 15.5397C68.208 16.5557 70.896 18.2597 73.332 20.9567C80.019 28.3587 81.333 38.9457 78.49 62.5107C76.568 78.4377 76.669 84.8407 79 95.0107C84.816 120.378 79.399 129.054 52.164 137.997C38.238 142.57 37.305 143.004 23.531 151.307C14.149 156.962 4.968 161.011 1.525 161.011C0.686 161.011 0 161.403 0 161.882C0 163.225 8.419 161.344 13.219 158.928C15.574 157.743 22.265 153.917 28.089 150.426C35.526 145.967 42.074 142.992 50.089 140.429C64.451 135.837 72.114 131.825 76.895 126.393C83.448 118.948 84.382 111.991 80.873 96.7497C78.472 86.3237 78.204 75.8267 80.01 63.0107C81.589 51.8067 81.624 35.6327 80.081 30.0107C75.862 14.6397 65.541 10.9037 28 11.1567C16.725 11.2327 5.7 11.6407 3.5 12.0627ZM149.121 23.5277C133.572 26.3427 121.647 35.5827 114.573 50.2947C103.295 73.7487 106.055 93.0097 124.704 121.011C136.839 139.23 145.819 149.968 164.93 169.114C184.723 188.942 194.126 196.614 205.746 202.415C217.312 208.189 222.56 209.057 251.5 209.983C282.214 210.966 285.54 211.674 305.635 221.497C321.049 229.031 337.068 239.576 356.5 254.979C373.438 268.405 385.584 277.097 395.258 282.718C403.496 287.504 420.539 294.505 426.5 295.551C432.605 296.623 429.55 294.629 422 292.615C418.425 291.662 411.339 288.915 406.252 286.511C391.774 279.668 381.075 272.326 349.57 247.617C325.129 228.448 301.844 215.69 282.5 210.871C276.229 209.308 268.989 208.696 249 208.035C221.465 207.126 217.411 206.457 206.302 200.988C196.761 196.291 185.959 187.793 170.5 172.824C140.271 143.552 116.641 110.808 111.458 91.0107C109.236 82.5257 109.23 70.1567 111.443 62.5107C115.602 48.1407 124.661 35.6017 134.78 30.2087C144.821 24.8567 150.588 24.0417 178.5 24.0287C222.91 24.0087 242.517 26.9237 296 41.4957C339.061 53.2277 353.487 56.5527 378.5 60.5077C398.342 63.6447 405.821 65.2587 418.334 69.1007C430.246 72.7597 433.758 72.4197 422.5 68.6977C411.391 65.0257 400.168 62.5107 381.568 59.5237C357.896 55.7237 337.075 51.0127 302.151 41.5567C253.857 28.4807 235.775 24.9267 207.823 23.0187C187.839 21.6537 158.041 21.9127 149.121 23.5277ZM0 30.8567C0 32.9147 0.436 33.0107 9.75 33.0187C40.338 33.0417 52.2 38.2057 56.943 53.5627C59.441 61.6477 61.535 98.0817 60.033 107.31C58.035 119.582 52.083 125.989 34.5 134.794C20.501 141.804 9.363 142.712 3.005 137.362L0 134.833V137.808C0 140.261 0.659 141.098 3.75 142.575C12.872 146.935 22.906 145.278 39.387 136.691C55.583 128.253 62.083 120.544 63.916 107.601C64.978 100.098 63.649 64.9577 62.018 57.4277C58.775 42.4567 51.707 34.8417 37.977 31.5317C34.415 30.6727 24.413 29.6847 15.75 29.3357C0.0939999 28.7057 0 28.7147 0 30.8567ZM169.109 38.5257C156.332 42.1187 148.416 48.0007 143.208 57.7717C134.943 73.2777 134.936 90.9567 143.188 107.431C150.217 121.462 167.939 143.119 187.775 161.917C206.135 179.317 214.75 186.075 225.5 191.517C237.031 197.354 244.107 198.743 266.389 199.547C290.074 200.401 297.914 202.177 314.704 210.496C329.938 218.044 338.974 223.99 361 240.958C386.777 260.816 401.473 269.826 415.5 274.371C422.192 276.54 430 277.939 430 276.97C430 276.539 428.087 275.868 425.75 275.479C418.596 274.287 405.694 269.17 396.367 263.826C385.839 257.795 379.284 253.187 360.533 238.637C337.795 220.993 322.614 211.464 306.845 204.935C295.059 200.055 288.905 199.002 266.5 198.031C243.893 197.052 237.876 195.963 227.373 190.95C202.922 179.281 153.264 127.728 143.048 103.407C138.953 93.6597 137.5 83.7027 138.953 75.3567C142.256 56.3897 150.855 45.9507 167.486 40.7177C173.863 38.7107 176.451 38.5197 196 38.6087C234.966 38.7867 257.657 42.4757 311.5 57.3897C341.785 65.7777 362.665 70.6867 382 73.9627C397.443 76.5787 408.944 79.3647 425.25 84.4377C427.862 85.2497 430 85.5167 430 85.0307C430 84.5437 429.212 83.9107 428.25 83.6247C404.241 76.4807 397.009 74.7157 382.5 72.4597C366.891 70.0317 346.581 65.3757 321 58.3587C256.08 40.5507 242.048 38.1047 201 37.4397C179.381 37.0897 173.507 37.2897 169.109 38.5257ZM0 43.8727C0 44.5767 2.001 45.0167 5.25 45.0257C12.076 45.0447 21.804 47.3707 27.833 50.4257C44.107 58.6727 51.295 82.9317 43.02 101.687C40.626 107.114 33.641 114.643 28.627 117.201C22.399 120.379 14.035 119.457 6.075 114.715C2.639 112.668 0.008 111.536 0.229 112.198C0.45 112.861 3.526 114.994 7.065 116.938C12.393 119.865 14.532 120.477 19.5 120.492C29.969 120.525 38.699 114.087 44.345 102.17C47.31 95.9117 47.496 94.8487 47.433 84.5107C47.358 72.0917 46.128 67.6997 40.368 59.2857C36.079 53.0207 29.796 48.6457 21.334 46.0327C13.49 43.6097 0 42.2437 0 43.8727ZM196.347 51.1057C182.856 53.3597 172.307 60.4487 167.886 70.2317C165.785 74.8797 165.506 76.9457 165.547 87.5107C165.586 97.6627 165.945 100.355 167.873 104.991C174.804 121.656 196.781 145.616 227.838 170.369C245.653 184.568 256.238 188.38 282.422 190.03C300.927 191.196 309.455 193.184 321.774 199.202C334.001 205.176 344.404 211.974 363.5 226.467C382.278 240.72 390.41 246.202 399.707 250.876C407.409 254.748 418.948 258.581 425.322 259.385C429.479 259.909 430.099 259.762 429.821 258.318C429.584 257.089 427.642 256.331 422.499 255.463C408.096 253.032 392.833 244.789 369.222 226.69C343.523 206.99 328.108 197.466 313.007 191.954C304.849 188.977 298.46 188.005 274.5 186.094C267.9 185.568 259.575 184.224 256 183.106C242.456 178.874 222.972 164.192 198.933 140.105C174.621 115.745 168.09 104.511 168.024 86.9427C167.972 72.9347 172.853 64.2237 183.831 58.7317C194.068 53.6107 203.394 52.5287 225.199 53.9327C258.015 56.0467 271.837 58.8167 329.5 74.8327C353.74 81.5657 366.927 84.6857 389.18 88.9547C395.053 90.0817 404.953 92.5427 411.18 94.4247C426.405 99.0257 430 99.6587 430 97.7407C430 96.7947 428.262 95.8117 425.25 95.0547C422.637 94.3977 415.55 92.3697 409.5 90.5477C403.45 88.7257 392.875 86.2537 386 85.0547C369.759 82.2227 354.151 78.4867 329.601 71.5557C279.335 57.3647 259.153 53.1907 230.5 51.0597C214.401 49.8627 203.7 49.8767 196.347 51.1057ZM0 59.8717C0 60.3447 2.266 61.0007 5.036 61.3287C11.238 62.0627 19.415 66.3817 22.324 70.4597C24.068 72.9047 24.5 74.9197 24.5 80.6117C24.5 86.7567 24.028 88.6367 21 94.5627C18.604 99.2527 16.447 102.025 14.162 103.355C11.014 105.188 10.631 105.205 7.405 103.667C5.525 102.771 3.091 100.569 1.997 98.7737C0.307 96.0027 0.007 95.8347 0.004 97.6567C0.002 98.8657 1.545 101.16 3.535 102.907C10.276 108.826 17.461 106.08 22.356 95.7147C30.552 78.3597 26.271 65.9547 10.395 61.0507C3.319 58.8657 0 58.4887 0 59.8717ZM220.387 65.9397C208.858 67.7867 199.222 72.9897 195.927 79.1477C192.276 85.9687 193.17 100.478 197.859 110.511C202.903 121.302 217.649 136.214 241 154.136C265.093 172.627 272.704 176.005 296 178.539C316.146 180.731 319.555 181.678 334.482 189.227C343.965 194.022 353.868 200.556 367.5 211.011C388.514 227.128 401.887 234.785 414.774 238.081C422.665 240.099 430 240.617 430 239.155C430 238.685 426.738 238.051 422.75 237.746C408.725 236.676 395.747 230.092 370.184 211.077C349.6 195.766 347.161 194.134 335.977 188.191C322.797 181.186 316.138 179.212 299.734 177.45C282.194 175.565 275.858 174.025 266.671 169.414C247.89 159.989 208.292 126.131 200.706 113.011C195.18 103.454 193.433 89.0557 196.88 81.4697C201.006 72.3857 210.576 68.0347 228.132 67.2597C253.484 66.1397 274.969 69.9617 328 85.0257C350.825 91.5087 376.25 98.2487 384.5 100.005C392.75 101.76 403.55 104.479 408.5 106.048C420.2 109.754 430 111.965 430 110.896C430 110.43 428.762 109.769 427.25 109.426C419.042 107.565 411.844 105.625 406.505 103.835C403.208 102.729 392.633 100.109 383.005 98.0107C373.377 95.9137 349.525 89.6097 330 84.0017C289.887 72.4817 278.472 69.7287 261.868 67.5687C247.21 65.6617 227.062 64.8707 220.387 65.9397ZM245.477 80.0327C226.664 81.6107 220.294 86.8997 221.243 100.157C222.397 116.295 232.432 127.292 264.933 148.038C287.632 162.527 293.25 164.904 312.369 168.113C319.012 169.228 327.159 171.042 330.473 172.144C339.609 175.18 353.722 183.598 371.936 196.873C397.335 215.385 409.854 221.162 423.96 220.88L430.5 220.749L422.541 219.842C407.308 218.106 395.517 212.437 374.212 196.608C350.931 179.312 335.712 170.977 322.968 168.547C318.861 167.763 310.918 166.243 305.317 165.169C292.771 162.762 285.22 159.228 265.748 146.654C239.922 129.977 230.656 121.758 225.635 111.073C221.728 102.758 221.298 93.7897 224.591 89.3377C233.729 76.9867 275.51 78.8137 321 93.5517C344.835 101.274 372.883 109.696 384.463 112.608C396.862 115.727 415.821 121.483 422.5 124.157C430.232 127.253 430.666 127.325 428.13 125.087C426.826 123.937 422.551 122.059 418.63 120.915C414.708 119.771 407.45 117.548 402.5 115.975C397.55 114.402 388.775 111.946 383 110.518C371.121 107.58 346.727 100.263 324.5 92.9727C293.717 82.8767 265.896 78.3207 245.477 80.0327ZM255.5 95.5137C250.308 97.3507 247 101.201 247 105.407C247 110.218 252.488 120.413 257.318 124.575C259.618 126.557 264.65 130.029 268.5 132.29C279.086 138.509 308.4 151.728 318 154.613C322.675 156.018 330.325 158.293 335 159.67C344.628 162.506 354.813 167.73 366.5 175.827C388.539 191.096 392.989 194 398.914 196.98C402.442 198.754 407.392 200.831 409.914 201.596C415.984 203.437 430 204.623 430 203.296C430 202.744 426.288 202.055 421.75 201.764C407.507 200.852 398.887 196.741 373.576 178.791C356.259 166.511 343.047 159.87 328.275 156.02C314.174 152.345 307.923 149.862 285.5 139.027C265.023 129.132 258.1 124.347 252.753 116.392C249.705 111.858 249 109.902 249 105.983C249 102.005 249.447 100.805 251.541 99.1577C262.309 90.6877 304.004 95.3767 339.719 109.074C345.649 111.348 361.3 116.95 374.5 121.524C416.148 135.954 411.445 133.918 422.25 142.199C426.512 145.466 430 147.738 430 147.249C430 146.334 419.571 137.635 414.838 134.602C413.375 133.664 398.75 128.233 382.338 122.532C365.927 116.832 346.425 109.92 339 107.171C323.676 101.499 309.621 97.6357 296.5 95.4907C284.815 93.5797 260.929 93.5927 255.5 95.5137ZM281.692 108.002C276.65 108.904 274.532 110.148 272.922 113.156C270.747 117.221 277.157 125.499 285.955 129.988C291.029 132.577 304.721 136.523 315.752 138.575C337.872 142.691 352.079 149.274 382.269 169.393C406.022 185.223 412.247 188.158 423 188.598L430.5 188.905L424.173 188.01C411.471 186.214 407.215 184.119 381.301 166.904C351.859 147.346 339.827 141.92 314 136.554C293.701 132.337 282.601 127.891 277.633 121.987C269.925 112.826 274.58 109.022 293.5 109.022C322.904 109.023 360.097 121.506 397.19 143.824C410.166 151.631 428.739 160.605 429.776 159.568C430.061 159.284 425.507 156.816 419.656 154.084C413.805 151.352 402.602 145.282 394.759 140.595C372.128 127.07 336.865 112.884 317.721 109.602C307.005 107.765 287.788 106.911 281.692 108.002ZM95.946 158.472C79.426 161.176 54.433 170.382 42.446 178.178C16.25 195.216 1.918 217.111 0.456 242.33C0.047 249.382 0.074 249.319 1.979 238.852C5.548 219.239 9.691 210.823 22.447 197.269C36.634 182.194 48.966 174.428 70.396 167.071C86.789 161.443 93.797 159.917 106 159.317C118.206 158.716 126.682 160.307 135.802 164.911C143.662 168.879 150.02 174.061 166.323 189.788C186.054 208.821 194.204 214.505 208.086 218.917C218.166 222.12 226.021 222.972 254.715 223.97C273.219 224.614 283.355 225.39 287.5 226.478C310.61 232.548 320.65 246.74 322.539 276.011C324.373 304.413 311.427 328.435 284.844 345.957C271.516 354.741 257.883 361.107 221.604 375.485C185.882 389.642 186.986 389.129 159.657 404.241C126.027 422.837 110.466 429.039 92.001 431.205C83.564 432.195 80.607 432.111 71.471 430.623C49.548 427.051 26.257 416.139 16.686 404.957C11.967 399.444 6.681 389.197 2.974 378.374C0.657 371.612 0.069 370.535 0.492 373.834C1.197 379.325 6.998 393.775 11.007 400.021C19.016 412.504 35.481 422.716 58.687 429.596C69.403 432.773 87.029 433.9 97.589 432.083C113.345 429.373 132.528 421.248 161.474 405.025C181.134 394.007 192.471 388.633 213.062 380.57C270.945 357.905 286.272 349.835 302.5 333.477C317.127 318.733 322.972 305.097 323.76 283.879C324.789 256.172 316.347 237.029 299.589 229.066C289.683 224.36 280.362 223.011 251.077 222.048C204.747 220.524 197.646 217.633 166 187.413C147.918 170.145 138.879 163.566 128.606 160.193C119.899 157.335 107.036 156.657 95.946 158.472ZM100 180.515C67.142 187.911 42.618 201.518 28.497 220.187C21.698 229.177 19.136 235.573 15.951 251.511C14.413 259.211 11.745 269.022 10.023 273.313C0.0699997 298.113 0.469 310.903 12.512 353.1C20.703 381.799 26.737 392.932 38.453 400.971C55.554 412.703 79.799 419.234 97.853 416.97C113.704 414.983 126.845 409.736 158.901 392.597C176.98 382.931 184.349 379.669 218 366.442C268.497 346.593 289.06 330.645 298.348 304.129C301.104 296.261 301.368 294.379 301.383 282.511C301.408 263.42 298.34 253.565 289.392 243.998C280.679 234.684 269.923 231.706 237.191 229.546C211.688 227.862 202.187 226.163 192.256 221.51C183.162 217.248 179.321 214.576 165 202.549C142.531 183.68 134.827 179.924 117.5 179.39C110.298 179.168 104.256 179.557 100 180.515ZM133.146 184.949C140.947 187.889 148.398 192.915 163.002 205.089C188.267 226.15 197.532 229.972 228.355 232.047C264.825 234.502 273.198 236.057 282.259 242.059C291.341 248.075 296.175 257.56 298.06 273.064C300.753 295.216 294.056 314.012 278 329.367C264.833 341.959 248.931 350.882 218 363.035C184.322 376.268 173.683 380.996 154.763 391.141C131.107 403.826 120.614 408.452 108.294 411.63C99.751 413.834 96.968 414.102 86.5 413.725C72.336 413.216 62.723 410.54 48.561 403.166C30.528 393.775 24.916 385.068 15.45 351.796C3.677 310.411 3.258 299.735 12.478 275.974C14.498 270.769 17.429 260.116 18.993 252.3C22.523 234.654 25.85 227.516 35.219 217.484C47.156 204.702 59.85 196.646 78.32 190.129C86.97 187.078 99.561 183.619 105.5 182.662C112.317 181.564 127.496 182.82 133.146 184.949ZM107.5 203.671C87.351 207.978 68.537 216.047 56.035 225.744C42.4 236.319 36.641 245.524 33.367 261.977C32.543 266.121 29.802 275.586 27.276 283.011C23.005 295.564 22.685 297.213 22.715 306.511C22.733 312.011 23.456 319.661 24.322 323.511C27.144 336.052 35.961 364.045 39.077 370.352C44.849 382.04 55.433 390.077 73.149 396.228C81.836 399.243 83.424 399.474 95.5 399.474C107.574 399.474 109.176 399.241 118 396.207C123.225 394.411 136.764 388.266 148.086 382.551C159.409 376.837 179.659 367.813 193.086 362.498C206.514 357.183 222 350.64 227.5 347.959C260.223 332.004 275.963 313.094 277.649 287.71C278.982 267.642 272.343 252.818 258.964 245.993C252.388 242.638 241.463 240.283 224.384 238.54C189.944 235.024 184.287 233.148 161 217.513C154.675 213.266 147.37 208.712 144.767 207.393C134.14 202.007 121.285 200.723 107.5 203.671ZM137.23 206C141.621 207.357 148.577 211.224 159.086 218.153C183.961 234.553 187.526 235.811 219.655 239.519C251.076 243.145 257.894 245.116 265.86 252.875C272.772 259.607 275.223 266.445 275.767 280.511C276.261 293.275 274.691 300.99 269.666 310.504C265.391 318.597 254.41 329.946 244.427 336.588C235.636 342.438 216.846 351.685 203 356.976C178.917 366.178 168.497 370.714 148.076 380.884C124.919 392.416 114.886 396.235 102.829 398.106C86.406 400.654 62.001 393.01 48.873 381.207C42.478 375.457 38.477 367.033 32.126 345.948C22.242 313.135 21.767 304.143 28.831 283.511C31.091 276.911 33.853 267.236 34.969 262.011C37.61 249.645 41.675 241.531 48.909 234.184C61.41 221.488 78.137 212.835 102.5 206.463C114.351 203.364 128.1 203.18 137.23 206ZM117.196 225.515C107.855 227.208 89.424 233.264 81.581 237.219C67.794 244.17 56.644 253.978 53.125 262.252C52.128 264.594 50.496 269.886 49.498 274.011C48.499 278.136 46.41 285.291 44.854 289.912C39.436 306.002 39.881 313.916 47.604 338.792C52.89 355.819 56.413 363.175 61.662 368.145C73.377 379.236 92.71 385.426 108.25 383.062C118.512 381.5 123.307 379.782 142.107 370.925C151.241 366.622 167.424 359.686 178.069 355.51C218.403 339.688 235.786 328.845 246.37 312.904C252.49 303.687 254.354 297.116 254.427 284.511C254.482 275.071 254.165 272.802 252.194 268.511C245.865 254.731 236.15 250.197 201.965 245.067C181.027 241.925 172.912 239.508 153.493 230.627C138.774 223.897 131.658 222.894 117.196 225.515ZM152.5 231.921C172.845 240.965 181.833 243.665 201 246.49C222.297 249.629 229.789 251.414 237.134 255.097C248.191 260.642 253.01 269.563 252.988 284.443C252.967 298.658 248.931 308.736 239.01 319.341C227.507 331.638 213.995 339.339 180 352.976C168.725 357.498 152.346 364.557 143.603 368.661C134.859 372.766 124.284 377.273 120.103 378.678C104.626 383.877 89.017 382.587 74.119 374.877C60.076 367.61 56.552 362.343 48.453 336.511C44.557 324.086 43.668 319.794 43.271 311.511C42.821 302.115 43.006 300.847 46.34 290.511C48.292 284.461 50.598 276.404 51.465 272.607C52.333 268.81 54.251 263.482 55.729 260.768C62.951 247.499 83.615 235.416 111 228.451C118.55 226.53 122.553 226.091 130.5 226.31C140.155 226.576 140.915 226.77 152.5 231.921ZM122.5 248.103C94.919 254.814 74.581 265.185 69.417 275.171C68.631 276.692 66.319 283.24 64.279 289.723C61.082 299.883 60.571 302.823 60.578 311.011C60.586 319.443 61.019 321.748 64.43 331.511C71.358 351.34 74.927 356.283 86.274 361.772C99.401 368.121 111.253 368.563 126 363.254C143.067 357.11 185.754 339.277 194.757 334.53C206.659 328.255 218.649 318.745 223.895 311.418C228.986 304.308 232 294.958 232 286.272C232 277.505 230.417 272.766 225.697 267.404C218.052 258.719 204.904 254.384 174.5 250.522C163.5 249.125 152.055 247.538 149.066 246.996C140.957 245.526 131.465 245.921 122.5 248.103ZM151.5 248.964C158.65 250.031 170.575 251.634 178 252.527C214.99 256.973 228.763 264.885 230.632 282.764C231.828 294.205 226.798 306.833 217.186 316.522C206.079 327.718 193.633 334.576 160 348.034C149.275 352.325 136.537 357.485 131.694 359.5C118.734 364.891 109.782 366.492 100.94 365.001C91.584 363.423 81.175 358.153 76.16 352.455C73.402 349.323 71.047 344.795 68.251 337.253C60.838 317.26 60.066 309.097 64.3 295.511C65.671 291.111 67.562 284.968 68.502 281.861C70.637 274.803 74.7 269.808 82.3 264.896C93.758 257.49 119.466 249.22 137.5 247.139C138.05 247.076 144.35 247.897 151.5 248.964ZM334.02 258.297C328.463 261.105 327.993 265.552 331.113 285.777C334.039 304.742 333.52 313.285 328.846 323.099C324.196 332.863 318.25 339.553 302.356 352.904C295.127 358.977 287.35 366.097 285.073 368.728C266.509 390.182 264.109 434.181 280.033 461.143C288.11 474.82 296.891 483.318 313.5 493.531C327.279 502.004 329.234 504.364 338.752 524.011C348.496 544.128 353.257 551.42 359.638 556.003C371.419 564.464 384.988 564.074 403.395 554.748C411.118 550.834 415.18 549.441 421.895 548.402L430.5 547.07L422.086 547.457C414.242 547.818 412.902 548.225 402.272 553.474C389.861 559.603 381.976 561.341 373.008 559.923C360.258 557.908 354.008 551.147 341.662 526.015C330.924 504.155 327.916 500.489 313.534 491.734C301.904 484.654 287.488 470.901 282.145 461.79C272.004 444.493 268.66 423.691 272.491 401.724C276.069 381.204 282.073 371.992 303.695 353.847C319.354 340.707 325.293 334.083 330.108 324.389C335.053 314.433 335.703 306.966 333.155 289.395C330.537 271.339 330.41 264.299 332.642 261.111C336.715 255.297 351.215 261.681 375.381 279.926C383.696 286.204 393.572 293.335 397.327 295.774C404.886 300.683 422.826 309.491 427.5 310.588C432.512 311.765 429.471 309.866 420.245 306.058C407.849 300.942 397.898 294.751 377.405 279.408C353.569 261.562 340.317 255.113 334.02 258.297ZM160 261.61C157.525 262.415 149.875 264.568 143 266.395C120.249 272.438 96.565 280.081 92.019 282.847C86.6 286.144 83.659 290.293 81.395 297.836C77.526 310.723 78.385 318.837 85.093 332.774C88.519 339.893 89.792 341.51 94.285 344.456C101.458 349.159 109.812 351.411 117.442 350.699C128.664 349.651 165.208 335.715 181.012 326.458C193.056 319.403 204.997 307.457 207.949 299.511C211.254 290.612 210.612 281.168 206.276 274.892C199.987 265.791 186.814 259.965 172.782 260.078C168.227 260.115 162.475 260.804 160 261.61ZM180.98 262.007C198.754 265.378 210.425 277.596 208.599 290.92C206.117 309.026 188.111 324.094 152 338.28C129.55 347.099 121.451 349.252 112.5 348.777C98.163 348.016 89.682 341.605 84.217 327.396C79.8 315.913 79.455 311.994 81.983 301.989C84.669 291.359 87.636 286.735 93.755 283.64C100.281 280.339 134.367 269.994 163.5 262.472C169.758 260.856 174.278 260.736 180.98 262.007ZM160.5 270.432C158.3 271.753 153.887 275.795 150.694 279.413C140.325 291.162 131.771 295.549 116.105 297.152C102.729 298.52 98.985 300.924 97.493 309.102C95.903 317.809 101.83 327.55 111.883 332.754C119.704 336.803 125.699 337.015 135.745 333.598C160.34 325.232 186.019 307.082 189.018 295.944C193.649 278.746 174.773 261.861 160.5 270.432ZM177.772 272.664C185.439 277.074 189.335 286.083 187.591 295.376C186.258 302.485 173.662 313.276 154.869 323.41C136.476 333.328 123.383 336.374 114.81 332.731C109.937 330.661 102.048 323.328 100.352 319.293C98.405 314.659 98.672 308.062 100.958 304.312C103.181 300.666 105.79 299.802 119.111 298.3C132.321 296.811 139.07 293.196 151.53 280.934C157.13 275.424 163.014 270.521 164.606 270.039C168.473 268.868 172.603 269.691 177.772 272.664ZM341.989 277.817C339.746 279.633 339.5 280.557 339.5 287.171C339.5 291.208 340.34 300 341.366 306.709C342.904 316.758 343.038 320.01 342.128 325.174C339.954 337.517 334.119 345.905 317.5 360.579C304.651 371.925 300.77 376.208 297.01 383.197C291.794 392.892 289.743 402.638 289.685 418.011C289.611 437.351 292.947 449.258 302.714 464.511C308.563 473.647 313.402 478.621 325.152 487.578C336.956 496.576 340 500.248 348.114 515.276C351.608 521.747 356.546 529.874 359.088 533.336C370.912 549.438 387.738 553.035 409.741 544.164C415.277 541.932 422.1 539.801 424.903 539.429C427.707 539.058 430 538.404 430 537.977C430 537.551 428.087 537.438 425.75 537.727C421.58 538.243 418.985 539.053 404.088 544.488C397.643 546.84 395.489 547.148 387.588 546.851C369.652 546.177 362.347 539.395 345.979 508.217C341.48 499.648 336.336 494.069 325.367 485.86C311.497 475.481 303.702 465.771 297.24 450.823C287.789 428.963 289.237 396.917 300.423 380.379C302.332 377.557 308.305 371.257 313.697 366.379C330.358 351.307 335.773 345.25 339.714 337.276C342.802 331.027 343.432 328.612 343.799 321.612C344.053 316.78 343.587 309.21 342.679 303.423C340.178 287.484 340.089 286.273 341.13 282.504C343.825 272.743 355.394 276.693 384 297.14C398.45 307.469 424.673 322.011 428.847 322.011C431.259 322.011 429.453 320.876 421.63 317.474C409.846 312.35 395.476 303.806 381.747 293.761C360.638 278.316 347.757 273.15 341.989 277.817ZM353.92 294.406C351.179 295.291 350.212 296.344 349.049 299.708C347.754 303.455 347.797 305.344 349.45 317.282C353.036 343.179 351.396 347.732 331 368.511C311.67 388.204 308.613 395.069 308.729 418.511C308.802 433.049 310.995 442.639 317.439 456.586C322.32 467.149 326.065 472.117 338.464 484.473C346.691 492.671 351.076 498.034 355.507 505.319C370.058 529.235 380.422 536.5 400 536.508C409.527 536.511 429.988 531.568 429.996 529.261C430.002 527.446 427.365 527.708 418.286 530.425C407.255 533.727 400.661 534.4 392.983 533.008C378.417 530.367 370.78 523.916 358.017 503.469C352.114 494.014 348.341 489.364 339.803 481.027C332.168 473.572 327.621 468.143 324.18 462.374C314.789 446.628 310.023 425.963 311.985 409.497C314.092 391.812 316.788 386.94 333.634 370.371C354.484 349.865 356.655 343.542 352.491 315.456C350.934 304.951 350.885 303.021 352.109 300.456C355.416 293.524 365.161 296.809 388.219 312.626C400.281 320.901 412.942 327.782 426.618 333.496C429.707 334.786 430 334.758 430 333.168C430 331.903 426.47 329.841 417.082 325.624C408.394 321.721 400.065 316.956 391.64 311.07C370.888 296.571 360.889 292.153 353.92 294.406ZM361.073 315.646C358.499 318.918 358.408 323.715 360.642 338.319C362.182 348.389 362.182 349.537 360.63 355.117C358.432 363.024 355.635 367.26 345.665 377.78C341.095 382.602 336.137 388.628 334.647 391.17C328.289 402.02 327.372 422.85 332.477 440.511C338.135 460.09 342.495 468.552 353.679 481.66C356.425 484.878 361.395 491.336 364.724 496.011C376.21 512.142 386.674 519.595 401.297 522.061C409.767 523.49 427.56 522.865 429.3 521.078C430.249 520.104 429.454 520.021 425.5 520.679C413.049 522.751 396.05 520.628 386.633 515.824C380.89 512.894 373.236 505.292 366.453 495.783C363.208 491.233 357.071 483.222 352.814 477.98C344.155 467.315 338.839 456.942 334.38 442.011C331.801 433.375 331.541 431.101 331.521 417.011C331.5 401.738 331.545 401.415 334.593 394.984C336.758 390.415 340.608 385.332 347.425 378.04C360.578 363.97 362.439 360.257 362.473 348.011C362.488 342.786 361.92 334.826 361.211 330.323C360.114 323.355 360.137 321.618 361.369 318.669C362.166 316.763 363.761 314.904 364.915 314.538C368.775 313.313 377.734 316.903 387.728 323.682C393.103 327.327 399.975 331.988 403 334.04C406.025 336.093 409.598 338.108 410.939 338.519C412.28 338.93 416.972 341.004 421.366 343.128C425.759 345.253 429.574 346.771 429.843 346.501C430.113 346.232 430.146 345.853 429.917 345.66C429.271 345.117 414.96 338.402 410.654 336.623C408.538 335.748 401.746 331.442 395.559 327.053C376.156 313.288 365.658 309.816 361.073 315.646ZM373.235 332.002C369.98 333.375 368.747 337.53 369.374 345.011C371.386 368.999 371.421 367.417 368.763 373.154C367.398 376.1 363.673 381.661 360.485 385.511C351.958 395.807 349.672 401.401 349.179 413.176C348.843 421.189 349.323 425.548 351.982 438.676C357.063 463.756 358.901 468.223 370.749 484.271C378.342 494.556 384.297 500.072 391.376 503.378C398.136 506.535 413.638 510.049 423 510.548L430.5 510.948L422 509.532C400.631 505.973 391.547 502.93 383.586 496.664C378.828 492.919 365.936 475.807 362.004 468.019C356.804 457.718 350.684 429.733 350.631 416.011C350.584 404.154 352.579 397.833 358.765 390.238C372.726 373.099 374.142 368.878 371.56 352.111C368.766 333.969 371.494 330.234 384.344 334.613C386.929 335.493 393.872 339.606 399.772 343.752C410.068 350.986 419.049 355.981 421.8 356.001C422.514 356.007 424.469 356.719 426.143 357.585C427.816 358.45 429.444 358.9 429.76 358.585C430.703 357.642 429.668 357.104 421.242 354.154C415.645 352.196 410.185 349.187 403.344 344.29C387.861 333.21 378.973 329.582 373.235 332.002ZM380.957 352.761C378.917 355.324 378.821 356.122 379.553 364.511C380.951 380.538 380.701 383.017 377.024 389.573C368.807 404.228 368.999 403.646 369.02 413.93C369.03 419.2 369.69 427.111 370.485 431.511C371.28 435.911 371.946 443.247 371.965 447.814C372.015 459.673 374.346 468.804 379.166 476.022C386.623 487.189 394.686 491.914 409.82 493.986C414.318 494.602 420.136 495.755 422.749 496.548C428.194 498.2 430.862 498.435 429.45 497.139C428.343 496.123 417.538 493.595 407.5 492.004C393.496 489.784 383.987 482.824 377.807 470.27C374.981 464.531 374.609 462.571 373.431 447.254C372.723 438.045 371.614 427.811 370.966 424.511C370.318 421.211 369.991 415.271 370.24 411.311C370.648 404.834 371.226 403.188 376.009 394.902C382.144 384.272 382.915 380.151 381.116 367.623C379.753 358.129 380.557 354.121 384.238 352.052C386.541 350.759 387.438 350.787 392.167 352.301C395.1 353.24 401.325 356.688 406 359.965C419.083 369.134 422.534 371.073 426.674 371.585C430.751 372.089 429.951 371.494 423.089 368.916C421.213 368.212 415.681 364.765 410.796 361.257C394.813 349.781 385.45 347.115 380.957 352.761ZM391.455 370.466C389.399 372.521 389.007 373.862 389.044 378.716C389.068 381.903 389.466 386.472 389.929 388.868C390.506 391.854 390.302 395.471 389.281 400.368C387.825 407.352 387.847 409.113 389.642 430.062C390.04 434.704 389.591 439.567 388.102 446.754C386.946 452.332 386.003 457.934 386.006 459.203C386.017 464.038 388.296 469.376 392.116 473.521C398.309 480.239 401.51 481.336 416.752 481.965C429.206 482.478 432.932 482.03 427.75 480.641C426.512 480.31 420.775 480.022 415 480.003C402.759 479.961 398.357 478.459 393.174 472.557C387.204 465.757 386.721 461.263 390.135 444.3C392.236 433.861 392.242 433.508 390.537 421.985C388.89 410.851 388.891 409.889 390.558 402.394C392.091 395.502 392.158 393.428 391.091 385.885C390.047 378.508 390.089 376.733 391.384 373.635C392.773 370.309 393.234 370.011 396.977 370.011C401.639 370.011 408.991 373.434 420.589 381.006C428.4 386.105 430 386.786 430 385.011C430 384.461 429.514 384.011 428.921 384.011C428.327 384.011 423.614 381.272 418.446 377.924C408.628 371.565 400.741 368.011 396.444 368.011C395.05 368.011 392.805 369.116 391.455 370.466ZM251.796 371.421C246.691 373.244 239.611 377.919 227.121 387.715C220.457 392.942 212.029 398.324 204.5 402.161C197.9 405.525 187.236 411.114 180.803 414.582C157.178 427.316 146.375 431.125 125.51 434.075C102.397 437.343 92.06 441.23 89.372 447.663C87.37 452.455 89.012 455.675 98.986 466.511C104.123 472.092 108.338 477.79 110.082 481.511C115.95 494.032 118.175 519.185 114.637 533.011C111.066 546.966 102.228 559.834 89.674 569.358C75.355 580.22 66.216 583.936 46.186 587.043C30.779 589.433 25.033 590.93 18.5 594.254C13.261 596.92 0 609.424 0 611.697C0 612.423 3.207 609.641 7.127 605.514C15.765 596.421 22.693 592.745 35.5 590.462C64.032 585.376 65.333 585.035 75.5 579.981C97.782 568.905 112.182 551.738 116.61 530.976C119.73 516.341 116.532 488.714 110.533 478.476C109.219 476.235 104.689 470.601 100.466 465.956C91.754 456.373 89.435 452.397 90.375 448.653C91.736 443.229 104.828 438.407 126 435.533C147.062 432.674 158.147 428.606 186.745 413.237C195.96 408.285 206.425 402.77 210 400.982C216.852 397.555 217.917 396.82 232.859 385.211C245.248 375.586 252.88 371.752 259.853 371.65C269.114 371.515 270.195 376.322 264.563 392.586C259.537 407.097 258.68 413.663 259.242 433.378C259.824 453.85 261.453 461.935 267.56 474.664C275.337 490.877 286.709 503.278 303.194 513.524C327.055 528.353 334 535.798 334 546.545C334 556.57 332.066 557.462 310 557.62C290.78 557.757 281.12 559.172 255.5 565.605C233.666 571.087 219.698 576.149 202.128 584.947C175.737 598.162 171.776 599.437 144.5 603.501C118.738 607.339 90.279 615.818 71.5 625.251C60.293 630.881 29.346 645.039 18 649.728C9.516 653.234 0 659.289 0 661.181C0 661.731 2.219 660.552 4.931 658.561C7.644 656.57 15.406 652.541 22.181 649.607C40.694 641.592 53.347 635.804 65 630.021C93.093 616.081 118.065 608.698 154.956 603.43C170.39 601.225 177.127 598.853 199.967 587.582C220.008 577.692 234.067 572.52 255.5 567.15C280.332 560.93 288.364 559.742 308.214 559.354C318.507 559.153 328.07 558.555 329.464 558.025C332.967 556.693 335.992 551.337 335.996 546.457C336.001 540.852 331.79 532.888 326.166 527.868C323.6 525.577 315.03 519.454 307.122 514.26C299.215 509.066 290.746 502.974 288.302 500.722C281.87 494.793 272.578 482.064 268.597 473.729C263.815 463.715 262.196 456.766 260.801 440.255C259.188 421.168 260.475 409.421 265.966 393.111C270.698 379.056 270.943 375.863 267.545 372.466C265.604 370.524 264.089 370.02 260.295 370.055C257.658 370.079 253.833 370.694 251.796 371.421ZM403.736 386.694C401.084 387.399 399 392.308 399 397.851C399 401.86 399.97 404.638 404.155 412.613C410.959 425.577 410.924 427.438 403.59 442.823C396.411 457.881 396.168 461.578 401.993 467.119C407.649 472.5 414.697 473.325 426.344 469.972C433.001 468.055 429.59 467.841 420.868 469.629C412.641 471.315 412.421 471.308 407.777 469.245C401.792 466.587 398.687 461.986 399.521 457.011C399.844 455.086 402.615 448.21 405.678 441.731C412.52 427.264 412.582 424.024 406.229 413.051C401.099 404.191 399.622 399.729 400.344 395.279C401.071 390.8 403.594 388.008 406.905 388.021C410.318 388.034 419.072 392.16 425.145 396.617C427.815 398.577 430 399.732 430 399.183C430 397.772 422.426 392.363 416.5 389.542C411.093 386.968 406.532 385.95 403.736 386.694ZM224.5 401.939C216.074 404.943 209.603 408.629 193.23 419.75C181.335 427.83 174.039 431.948 163.305 436.64C134.907 449.052 128.262 453.67 122.787 464.795C119.643 471.182 119.505 471.954 119.606 482.492C119.733 495.72 122.116 505.701 128.011 517.698C132.563 526.96 136.144 530.512 148.5 538.017C157.81 543.672 162.563 548.454 169.86 559.511C172.808 563.978 176.986 568.836 179.32 570.511C183.012 573.161 184.318 573.511 190.5 573.511C198.64 573.511 204.202 571.155 219.919 561.045C231.798 553.405 238.632 551.291 255.622 550.002C269.711 548.932 296.127 543.98 298.574 541.95C299.358 541.299 300 539.158 300 537.192C300 530.654 294.683 525.161 274.209 510.548C259.496 500.047 253.116 491.158 248.804 475.155C245.75 463.817 245.736 441.707 248.776 430.011C251.229 420.577 251.63 410.815 249.721 407.041C249.033 405.683 246.948 403.545 245.088 402.291C240.869 399.448 231.918 399.295 224.5 401.939ZM242.855 404.436C248.71 407.464 249.358 414.326 245.396 431.333C243.073 441.307 242.848 443.911 243.315 455.511C243.909 470.302 246.165 480.408 251.048 490.155C255.902 499.841 260.078 504.271 273.324 513.784C293.066 527.962 300.206 536.193 295.652 539.523C293.043 541.431 268.742 545.818 254.248 546.998C238.98 548.242 230.955 550.425 222.5 555.637C219.2 557.671 212.984 561.486 208.686 564.116C199.301 569.857 191.808 571.869 186.137 570.17C180.284 568.417 177.332 565.567 170.511 555.088C163.217 543.881 162.349 543.032 150.5 535.502C145.55 532.356 139.773 528.146 137.662 526.147C125.637 514.754 118.432 481.625 124.867 467.309C129.638 456.694 138.529 450.697 168.5 437.882C174.805 435.186 184.042 429.854 193.5 423.451C210.962 411.631 217.772 407.662 225.151 405.007C231.531 402.712 239.052 402.469 242.855 404.436ZM0 409.678C0 411.262 11.304 421.65 17.732 425.972C21.159 428.276 32.533 434.618 43.006 440.066C53.48 445.513 64.744 451.8 68.037 454.036C89.735 468.771 98.182 485.109 98.27 512.511C98.358 539.661 89.425 557.716 71.411 566.801C59.417 572.849 53.161 574.154 32.5 574.917C15.911 575.53 12.87 575.903 8.537 577.853C3.359 580.184 0 582.688 0 584.217C0 584.71 1.493 583.974 3.319 582.582C9.564 577.818 14.185 576.866 35 576.054C53.413 575.336 54.967 575.12 62.874 572.177C78.536 566.348 87.029 559.131 93.081 546.511C98.543 535.118 100.383 524.745 99.72 509.084C99.117 494.837 97.469 487.58 92.55 477.511C85.902 463.902 73.41 453.973 43.5 438.528C23.296 428.094 14.878 422.7 6.343 414.715C2.854 411.452 0 409.185 0 409.678ZM219.5 424.909C209.349 428.631 185.232 440.533 176.477 446.142C171.514 449.321 165.214 452.907 162.477 454.109C154.299 457.702 149.607 461.48 146.708 466.807C139.817 479.467 143.178 492.663 159.627 517.525C163.999 524.132 168.646 532.232 169.955 535.525C180.056 560.947 186.408 563.746 207.022 551.861C219.753 544.521 226.555 542.211 240.483 540.494C257.752 538.365 265 535.047 265 529.271C265 525.798 263.521 523.446 255.723 514.511C246.444 503.879 242.535 497.657 239.595 488.839C235.681 477.098 234.637 466.767 235.286 446.18L235.865 427.785L233.478 425.398C230.571 422.492 226.485 422.349 219.5 424.909ZM233.793 428.255C234.806 430.376 234.865 432.291 234.052 436.689C231.631 449.785 233.494 474.879 237.936 489.011C240.763 498.005 244.46 503.971 253.977 514.898C263.551 525.888 264.735 528.241 262.449 531.73C260.232 535.112 255.28 536.951 245.14 538.158C226.214 540.409 222.54 541.666 200.677 553.361C193.103 557.413 187.04 558.128 183.181 555.425C179.952 553.164 176.857 547.893 172.169 536.674C169.921 531.292 165.673 523.429 162.73 519.2C146.711 496.178 141.762 480.666 146.879 469.511C149.579 463.625 153.444 460.312 163.5 455.262C168.45 452.776 175.04 449.019 178.144 446.912C183.386 443.354 204.263 432.858 217 427.378C220.827 425.731 224.018 425.088 227.492 425.261C231.834 425.479 232.654 425.868 233.793 428.255ZM0 435.819C0 437.1 4.906 440.218 23.659 450.857C48.383 464.882 57.543 472.613 63.254 484.277C71.561 501.243 70.941 528.084 61.847 545.146C57.877 552.596 51.682 558.148 42.534 562.457C33.83 566.556 28.99 567.723 17.5 568.492C4.46 569.365 0 570.015 0 571.041C0 571.54 0.563 571.75 1.25 571.508C1.938 571.266 8.575 570.623 16 570.079C53.387 567.339 70.302 549.767 70.449 513.511C70.544 490.152 64.276 476.827 46.893 463.434C43.809 461.058 33.723 454.794 24.478 449.513C15.234 444.233 6.507 439.109 5.085 438.126C0.942 435.262 0 434.835 0 435.819ZM201 447.902C188.523 452.887 183.179 456.215 174.211 464.582C164.432 473.708 161.992 477.133 162.012 481.711C162.027 485.186 165.596 491.535 171.352 498.329C176.93 504.912 178.231 507.524 181.421 518.542C188.16 541.819 193.057 545.103 211.523 538.732C237.877 529.641 240.947 524.953 232.872 506.132C224.807 487.337 223.867 483.716 223.096 468.492C222.329 453.35 221.026 449.255 216.288 447.096C212.789 445.502 206.129 445.853 201 447.902ZM217.866 450.422C220.281 452.837 220.467 453.767 221.127 466.747C221.909 482.124 223.219 487.33 230.687 504.746C239.08 524.318 237.427 527.506 214.477 536.02C193.68 543.735 190.357 541.734 182.611 516.837C179.721 507.549 178.113 504.105 174.739 499.98C165.483 488.661 164.001 486.066 163.988 481.152C163.976 476.579 164.119 476.374 173.738 467.195C183.297 458.073 190.666 453.49 203.932 448.415C208.978 446.485 214.762 447.318 217.866 450.422ZM0 457.86C0 459.115 3.177 461.784 9.75 466.051C20.697 473.158 30.696 482.535 33.785 488.59C40.839 502.417 40.691 525.659 33.457 540.057C32.201 542.557 29.278 546.497 26.962 548.814C22.079 553.697 10.177 559.909 4.158 560.717C0.946 561.147 0 561.704 0 563.162C0 564.702 0.506 564.937 2.75 564.44C8.36 563.198 12.644 561.664 18 558.979C34.271 550.822 41.952 536.249 41.985 513.471C42.02 489.695 34.71 478.29 8.75 461.619C1.565 457.004 0 456.332 0 457.86ZM191.721 472.221C189.642 472.772 186.604 474.56 184.971 476.194C180.865 480.3 180.915 485.689 185.133 493.62C186.857 496.86 189.579 502.012 191.182 505.068C192.785 508.124 194.485 513.365 194.958 516.714C195.431 520.064 196.323 523.746 196.939 524.897C201.252 532.956 219.213 531.039 224.206 521.986C227.585 515.86 226.379 510.408 217.776 492.927C210.056 477.241 207.692 473.975 202.685 472.078C199.37 470.822 196.869 470.854 191.721 472.221ZM207.45 477.265C209.127 479.22 213.613 487.47 217.417 495.596C224.862 511.501 225.875 516.5 222.653 521.418C219.049 526.917 210.763 529.832 203.949 527.997C199.277 526.739 198.119 524.857 196.369 515.67C195.557 511.409 193.473 505.897 190.882 501.155C184.325 489.16 183.917 488.272 183.352 484.791C182.26 478.062 189.547 472.714 198.95 473.344C203.745 473.665 204.766 474.135 207.45 477.265ZM0 484.002C0 484.548 1.531 487 3.403 489.452C8.543 496.185 10.456 502.87 10.431 514.011C10.406 525.472 8.113 534.168 3.253 541.234C-0.916 547.295 -0.349 548.856 3.894 542.999C8.98 535.977 11.203 528.692 11.764 517.206C12.395 504.28 10.499 496.43 4.837 488.523C0.87 482.984 0 482.17 0 484.002ZM415.5 559.931C412.2 560.908 406.059 563.103 401.854 564.808C387.892 570.468 366.097 572.967 330.424 572.996C298.978 573.022 277.24 576.348 241.92 586.538C219.31 593.062 181.17 606.294 165.232 613.145C144.034 622.257 140.748 623.215 117.5 627.06C110.35 628.242 100.9 630.344 96.5 631.73C77.725 637.645 0 672.536 0 675.049C0 675.585 6.637 672.708 14.75 668.655C37.488 657.297 84.772 636.957 97.468 633.073C101.3 631.901 112.1 629.596 121.468 627.951C140.919 624.535 146.23 622.947 165 614.937C187.855 605.184 231.999 590.348 258.5 583.513C284.628 576.774 309.309 574.039 344.144 574.02C372.717 574.005 387.506 571.854 405.555 565.089C411.603 562.822 419.69 560.345 423.526 559.583C430 558.298 430.177 558.197 426 558.176C423.525 558.164 418.8 558.953 415.5 559.931ZM133.5 565.69C127.327 567.071 113.842 572.012 102 577.232C94.575 580.504 79.974 586.558 69.554 590.685C33.098 605.122 12.832 617.58 6.905 629.197C4.595 633.725 4.515 636.173 6.548 640.104C10.618 647.974 20.863 646.455 37.628 635.497C55.61 623.743 86.034 610.436 108.435 604.526C148.21 594.031 159.108 587.53 157.71 575.128C157.32 571.668 156.449 569.908 154.083 567.793C151.213 565.229 150.362 565.02 143.234 565.127C138.98 565.191 134.6 565.444 133.5 565.69ZM150.455 568.632C152.527 569.427 155 574.189 155 577.385C155 580.568 150.91 585.403 145.645 588.444C140.012 591.697 126.713 596.26 107.234 601.622C87.104 607.165 57.357 619.565 43.453 628.21C20.658 642.383 13.929 644.511 9.736 638.87C7.992 636.525 7.912 635.808 9.015 632.465C10.652 627.506 17.071 621.219 27.239 614.615C38.837 607.083 48.65 602.356 71.044 593.513C81.745 589.288 96.35 583.233 103.5 580.058C114.897 574.996 128.329 570.071 134.5 568.69C137.649 567.986 148.667 567.946 150.455 568.632ZM124.5 575.893C121.75 576.888 116.35 579.087 112.5 580.78C108.65 582.473 102.8 584.859 99.5 586.083C92.566 588.655 77.991 596.226 73.25 599.719C68.32 603.35 69.213 609.011 74.716 609.011C75.99 609.011 83.437 606.597 91.266 603.647C99.095 600.697 112.025 596.128 120 593.493C132.164 589.474 135.104 588.102 138.25 584.975C140.313 582.924 142 580.319 142 579.185C142 574.175 133.608 572.596 124.5 575.893ZM137.435 575.986C142.443 577.89 139.951 583.581 132.5 587.257C130.85 588.071 124.325 590.426 118 592.49C111.675 594.554 100.074 598.693 92.22 601.688C78.165 607.047 72.168 608.076 71.251 605.284C71.03 604.608 72.061 602.932 73.544 601.558C76.254 599.047 95.333 588.903 100 587.493C101.375 587.078 107.225 584.703 113 582.217C121.614 578.508 130.346 575.573 134.185 575.096C134.562 575.049 136.024 575.45 137.435 575.986ZM373.5 580.998C369.65 582.03 363.125 584.051 359 585.487C347.553 589.475 335.16 590.935 303.879 591.98C270.784 593.086 260.533 594.378 234.682 600.703C213.946 605.776 169.06 620.603 148 629.337C137.43 633.72 131.136 635.597 119 637.985C96.972 642.319 91.831 643.886 66.804 653.896C25.455 670.434 0 682.354 0 685.177C0 687.532 0.315 687.496 5.322 684.569C18.04 677.136 82.835 649.956 97.076 646.08C101.159 644.968 111.474 642.681 119.999 640.996C132.752 638.475 138.775 636.621 153.999 630.528C195.844 613.783 237.423 601.57 266.467 597.493C272.284 596.676 289.971 595.571 305.772 595.036C338.709 593.921 348.214 592.625 364.615 587.014C382.038 581.052 393.687 581.62 405.315 588.995C412.581 593.604 414.46 598.585 413.642 611.069C411.303 646.751 394.373 671.995 354.5 699.252C318.027 724.185 307.288 728.976 252 744.985C219.031 754.531 205.034 759.214 189 766.065C165.355 776.167 165.243 776.193 141 777.115C129.175 777.565 100.825 778.207 78 778.541C44.99 779.025 33.671 779.544 22.67 781.08C15.063 782.142 6.851 783.011 4.42 783.011C1.158 783.011 0 783.404 0 784.511C0 786.604 7.19 786.455 24 784.011C34.529 782.48 42.892 782.05 62 782.053C98.154 782.059 155.343 780.059 163.737 778.494C167.906 777.717 177.646 774.301 186.716 770.435C206.18 762.138 215.209 759.065 250 748.895C291.937 736.636 301.376 733.404 315.742 726.383C331.325 718.768 366.879 695.406 378.193 685.349C391.929 673.138 402.609 659.561 408.232 647.16C414.835 632.598 418.952 606.455 416.034 597.614C413.295 589.314 404.646 583.104 392.131 580.451C383.7 578.664 382.021 578.713 373.5 580.998ZM322 606.093C308.648 610.248 297.026 611.784 270 612.966C242.39 614.174 232.435 615.53 209.5 621.21C193.004 625.295 154.154 637.958 135.156 645.441C130.016 647.465 118.091 650.846 108.656 652.954C91.278 656.836 73.634 662.853 40.973 676.034C22.702 683.408 1.584 693.258 0.587 694.87C0.199 695.498 0.072 696.011 0.305 696.011C0.538 696.011 7.202 692.894 15.114 689.083C44.185 675.083 84.862 660.106 109.207 654.437C121.792 651.507 133.018 648.11 143.243 644.138C174.024 632.182 210.738 621.39 233.5 617.606C244.793 615.728 251.329 615.19 277.361 613.991C301.384 612.885 307.698 611.994 321.5 607.759C337.074 602.98 347.987 603.759 357.376 610.318C361.635 613.293 364.264 619.956 363.479 625.785C361.132 643.219 352.088 658.975 334.093 676.983C322.145 688.94 313.597 695.319 294.5 706.531C267.697 722.266 258.452 726 215 738.639C182.398 748.121 175.115 750.538 159.357 757.1C141.729 764.442 136.489 765.648 116.5 766.967C107.7 767.548 92.4 768.665 82.5 769.45C72.6 770.235 57.525 771.17 49 771.529C40.475 771.887 27.793 773.043 20.817 774.096C13.841 775.149 6.304 776.011 4.067 776.011C1.78 776.011 0 776.492 0 777.109C0 778.33 6.451 777.818 21.5 775.402C26.45 774.608 39.05 773.538 49.5 773.025C82.424 771.41 127.166 767.989 136 766.412C141.308 765.465 149.757 762.718 158.5 759.096C174.953 752.282 184.145 749.203 212.5 741.01C255.58 728.562 268.034 723.654 293 709.285C312.417 698.11 321.913 691.113 334.073 679.02C350.881 662.305 360.109 648.133 363.472 633.869C366.576 620.7 365.113 614.278 357.8 608.981C348.617 602.329 337.086 601.399 322 606.093ZM31.783 614.933C26.106 618.534 21.73 625.499 22.183 630.213C22.621 634.765 25.297 634.925 34.265 630.935C42.385 627.323 49 621.383 49 617.705C49 611.459 39.638 609.952 31.783 614.933ZM45.818 614.596C50.315 617.746 46.064 623.549 35.528 628.641C24.884 633.786 21.682 633.106 24.519 626.305C28.68 616.33 39.668 610.289 45.818 614.596ZM277 628.022C268.901 629.922 259.218 631.331 249.5 632.024C220.022 634.123 211.301 635.116 196.901 638.01C179.843 641.438 156.052 648.446 132.511 656.978C123.308 660.312 109.603 664.596 102.054 666.498C87.22 670.233 57.62 680.091 36 688.496C19.883 694.762 0 703.964 0 705.158C0 706.479 0.405 706.328 10.768 701.131C30.772 691.099 75.745 674.86 103.627 667.601C112.907 665.185 125.225 661.413 131 659.219C154.956 650.117 187.041 640.927 206.5 637.594C211.45 636.747 225.385 635.362 237.467 634.517C261.428 632.841 268.544 631.915 280.167 628.96C290.584 626.312 297.248 626.448 303.674 629.439C310.333 632.54 312.538 635.878 312.374 642.612C312.102 653.749 304.739 664.276 287.246 678.539C270.779 691.965 260.588 698.715 245 706.522C225.279 716.399 212.875 721.101 184.164 729.581C146.94 740.576 143.787 741.59 129.915 747.029C116.483 752.295 108.426 754.439 98 755.52C94.425 755.89 82.566 757.513 71.647 759.124C60.728 760.736 45.878 762.716 38.647 763.523C31.416 764.33 21.973 765.67 17.662 766.501C13.351 767.331 7.614 768.011 4.912 768.011C2.21 768.011 0 768.461 0 769.011C0 770.487 2.765 770.301 21.5 767.567C30.85 766.202 52.225 763.25 69 761.006C112.22 755.226 114.062 754.853 129.619 748.747C137.253 745.751 158.248 738.921 176.274 733.57C212.322 722.869 222.165 719.31 242.336 709.679C258.601 701.914 268.365 695.666 285 682.38C305.332 666.141 312.763 656.099 313.729 643.555C314.125 638.406 313.847 636.993 311.846 634.011C310.554 632.086 307.473 629.511 304.999 628.288C297.8 624.732 291.286 624.67 277 628.022ZM232.5 649.614C228.1 650.362 215.697 651.875 204.939 652.977C173.018 656.248 158.168 659.596 118.5 672.471C104.2 677.112 82.6 683.912 70.5 687.582C58.4 691.252 42.875 696.261 36 698.712C22.105 703.668 0 713.826 0 715.256C0 715.763 0.337 716.022 0.75 715.833C1.163 715.643 6.225 713.18 12 710.361C25.289 703.872 41.295 698.103 71 689.097C83.925 685.178 104.625 678.634 117 674.555C155.274 661.939 175.009 657.463 205.5 654.484C214.3 653.624 227.421 652.012 234.658 650.902C249.742 648.589 254.313 649.17 259.158 654.015C262.925 657.782 262.861 661.969 258.915 669.866C254.751 678.198 248.447 683.135 230.105 692.425C204.06 705.617 198.306 707.654 135.183 726.021C121.808 729.912 105.603 735.054 99.17 737.448C92.738 739.841 82.981 742.772 77.488 743.962C71.995 745.152 59.85 748.107 50.5 750.529C33.138 755.026 14.837 759.174 5 760.841C-0.464 761.767 -0.473 761.774 3.715 761.892C8.733 762.034 30.663 757.49 51.5 751.993C59.75 749.816 72.575 746.52 80 744.669C87.425 742.817 100.025 739.01 108 736.208C115.975 733.407 135.775 727.297 152 722.631C193.658 710.652 200.338 708.313 221.785 698.19C242.226 688.542 250.712 683.381 255.956 677.408C262.982 669.406 265.113 658.967 260.832 653.525C256.433 647.932 248.69 646.863 232.5 649.614ZM172.5 672.973C137.753 678.295 120.423 682.294 101.45 689.368C94.878 691.819 83.425 695.474 76 697.49C43.27 706.377 32.94 709.435 24.5 712.733C13.724 716.943 0 723.883 0 725.122C0 726.277 1.343 726.26 2.55 725.09C4.223 723.47 17.686 717.055 26.734 713.567C31.555 711.709 48.045 706.75 63.378 702.547C78.711 698.345 95.811 693.174 101.378 691.058C119.625 684.12 136.032 680.262 169.294 675.089C191.372 671.656 203.475 671.171 208.05 673.537C210.573 674.842 211 675.643 211 679.077C211 684.264 208.17 689.721 203.108 694.294C192.349 704.014 171.194 709.772 138 712.014C118.006 713.364 114.978 713.941 90.497 721.06C64.945 728.49 53.102 732.926 36.251 741.379C21.083 748.987 9.951 753.011 4.074 753.011C1.693 753.011 0 753.484 0 754.15C0 755.748 8.119 754.666 15.966 752.022C19.431 750.855 28.844 746.73 36.883 742.856C56.49 733.407 65.069 730.161 89.12 723.091C115.747 715.264 115.476 715.316 138.615 713.516C172.921 710.847 193.066 705.373 203.425 695.905C214.384 685.89 216.164 675.067 207.452 671.426C202.594 669.397 193.106 669.817 172.5 672.973ZM422.94 686.347C406.641 699.738 377.027 719.957 362.726 727.46C348.469 734.94 338.571 738.406 293.718 751.63C243.964 766.299 237.953 768.33 216.849 777.607C188.57 790.037 194.748 789.351 118.599 788.516C35.508 787.605 38.742 787.557 21.595 789.964C13.576 791.09 5.437 792.011 3.508 792.011C1.578 792.011 0 792.476 0 793.045C0 794.186 1.799 794.035 26.365 790.825C41.265 788.878 43.882 788.821 69.365 789.889C84.289 790.515 115.531 791.024 138.792 791.019C191.301 791.009 191.17 791.03 220 777.982C237.055 770.263 243.57 768.051 286.394 755.433C307.902 749.096 330.877 742.119 337.448 739.929C359.31 732.644 375.906 723.175 407.355 700.044C425.756 686.51 430.737 682.449 429.94 681.632C429.632 681.316 426.482 683.438 422.94 686.347ZM411.5 729.924C378.099 738.778 349.823 747.98 311.116 762.595C298.677 767.292 287.825 771.361 287 771.638C286.175 771.914 277.85 773.712 268.5 775.632C249.674 779.498 242.835 781.307 236.653 784.056C223.518 789.898 217.101 800.504 221.526 809.061C223.845 813.545 225.033 812.586 222.786 808.044C221.084 804.604 220.984 803.589 222.032 800.413C223.857 794.884 229.722 789.033 236.558 785.922C243.764 782.643 249.127 781.201 271 776.665C284.758 773.812 292.402 771.414 317 762.237C358.168 746.878 396.836 734.608 424.75 728.046C427.637 727.367 430 726.406 430 725.911C430 725.416 429.887 725.043 429.75 725.082C429.613 725.121 421.4 727.3 411.5 729.924ZM414 752.027C394.746 757.977 373.787 765.295 355.833 772.336C346.85 775.858 333.027 780.408 325.116 782.447C300.496 788.79 291.526 793.226 287.474 801.062C285.74 804.414 285.524 810.599 287.107 811.577C287.873 812.051 288.009 811.331 287.55 809.24C286.72 805.46 288.776 800.429 292.63 796.81C297.166 792.552 307.188 788.579 324.631 784.125C333.503 781.859 346.778 777.598 354.131 774.654C376.793 765.582 423.163 750.011 427.516 750.011C428.267 750.011 429.16 749.561 429.5 749.011C430.545 747.319 427.003 748.009 414 752.027ZM410 778.071C400.375 781.945 388.225 786.499 383 788.191C364.989 794.023 355.466 799.276 352.499 805.013C350.572 808.739 350.573 812.011 352.5 812.011C353.325 812.011 354 811.127 354 810.046C354 807.101 359.681 801.206 365.23 798.394C367.931 797.026 374.271 794.574 379.32 792.947C394.836 787.944 430 773.593 430 772.263C430 771.574 429.438 771.014 428.75 771.019C428.063 771.023 419.625 774.196 410 778.071ZM0.135 801.427C1.391 802.786 30.078 804.273 59.5 804.506C91.488 804.759 99.481 805.665 107.986 810.004C110.3 811.185 112.419 811.926 112.694 811.651C113.442 810.903 105.202 806.91 99.5 805.256C95.847 804.197 84.939 803.583 59 802.978C39.475 802.522 18.1 801.832 11.5 801.445C4.9 801.058 -0.214 801.05 0.135 801.427ZM424.687 804.761C420.926 807.58 417.25 812.019 418.693 812C419.137 811.994 421.011 810.434 422.858 808.533C424.705 806.632 427.068 804.807 428.108 804.477C429.149 804.146 430 803.457 430 802.944C430 801.379 428.527 801.883 424.687 804.761Z" fill="black"/>
</svg>
