<svg width="23" height="21" viewBox="0 0 23 21" fill="none" xmlns="http://www.w3.org/2000/svg">
<g clip-path="url(#clip0_65_4)">
<path d="M7.9155 17.1111H2.73056C2.38678 17.1111 2.05708 16.9823 1.81398 16.7531C1.57089 16.5239 1.43433 16.213 1.43433 15.8888V2.44439C1.43433 2.12024 1.57089 1.80936 1.81398 1.58015C2.05708 1.35094 2.38678 1.22217 2.73056 1.22217H15.6929C16.0367 1.22217 16.3664 1.35094 16.6095 1.58015C16.8526 1.80936 16.9892 2.12024 16.9892 2.44439V7.94439M20.3429 12.7274L13.752 18.9444L10.5114 19.5555L11.1595 16.4999L17.7539 10.2829C17.9236 10.1227 18.125 9.9956 18.3467 9.90883C18.5685 9.82213 18.8062 9.77748 19.0463 9.77748C19.2863 9.77748 19.5241 9.82213 19.7458 9.90883C19.9676 9.9956 20.169 10.1227 20.3386 10.2829L20.3464 10.2894C20.6888 10.6132 20.8807 11.0518 20.88 11.509C20.8794 11.9662 20.6862 12.4044 20.3429 12.7274Z" stroke="#C0C0C0" stroke-width="2.44444" stroke-linecap="round" stroke-linejoin="round"/>
</g>
<defs>
<clipPath id="clip0_65_4">
<rect width="21.8764" height="20.7778" fill="white" transform="translate(0.218994)"/>
</clipPath>
</defs>
</svg>
