<svg width="35" height="35" viewBox="0 0 35 35" fill="none" xmlns="http://www.w3.org/2000/svg">
<path d="M35 17.5C35 27.165 27.165 35 17.5 35C7.83502 35 0 27.165 0 17.5C0 7.83502 7.83502 0 17.5 0C27.165 0 35 7.83502 35 17.5Z" fill="#191919"/>
<g clip-path="url(#clip0_7_1207)">
<path fill-rule="evenodd" clip-rule="evenodd" d="M17.5344 8.69342C17.8676 8.69342 18.1378 8.96359 18.1378 9.29687V10.9375C18.1378 11.2708 17.8676 11.5409 17.5344 11.5409C17.2011 11.5409 16.9309 11.2708 16.9309 10.9375V9.29687C16.9309 8.96359 17.2011 8.69342 17.5344 8.69342Z" fill="#B2B2B2"/>
<path fill-rule="evenodd" clip-rule="evenodd" d="M16.7269 11.6094C17.4786 11.4822 18.2495 11.5332 18.9778 11.7584C19.2962 11.8568 19.6342 11.6784 19.7326 11.36C19.831 11.0416 19.6527 10.7037 19.3343 10.6053C18.4255 10.3244 17.4635 10.2607 16.5256 10.4194C15.5877 10.5781 14.7002 10.9547 13.9344 11.519C13.1687 12.0832 12.546 12.8193 12.1167 13.6681C11.6873 14.5168 11.4631 15.4551 11.4622 16.4063C11.4622 18.6687 11.1942 20.1137 10.94 20.9753C10.8129 21.4059 10.6893 21.6908 10.6041 21.8596C10.5614 21.944 10.5283 21.9996 10.5091 22.03C10.4994 22.0453 10.493 22.0545 10.4908 22.0577C10.3537 22.2387 10.3297 22.4816 10.4294 22.6862C10.5305 22.8937 10.7411 23.0254 10.9719 23.0254H24.0969C24.353 23.0254 24.5813 22.8637 24.6662 22.6221C24.747 22.3921 24.6813 22.1375 24.5026 21.9753C24.4957 21.9674 24.4776 21.9456 24.4511 21.9055C24.392 21.8163 24.2911 21.6366 24.179 21.3196C23.9539 20.6827 23.6906 19.5107 23.623 17.4518C23.6121 17.1188 23.3332 16.8576 23.0001 16.8685C22.667 16.8795 22.4058 17.1584 22.4168 17.4915C22.487 19.6297 22.7622 20.9328 23.0411 21.7218C23.0528 21.7549 23.0645 21.7871 23.0763 21.8185L10.4908 22.0577L11.8062 22.0327C11.9139 21.6858 12.6686 18.2192 12.6691 16.4066C12.6698 15.6444 12.8495 14.893 13.1936 14.2129C13.5377 13.5327 14.0367 12.9428 14.6504 12.4906C15.2641 12.0384 15.9753 11.7366 16.7269 11.6094Z" fill="#B2B2B2"/>
<path d="M16.0766 24.6094C16.1692 24.9249 16.3615 25.2019 16.6247 25.3989C16.8879 25.596 17.2079 25.7025 17.5367 25.7025C17.8655 25.7025 18.1855 25.596 18.4487 25.3989C18.7119 25.2019 18.9043 24.9249 18.9969 24.6094" stroke="#B2B2B2" stroke-width="1.17241" stroke-linecap="round" stroke-linejoin="round"/>
</g>
<defs>
<clipPath id="clip0_7_1207">
<rect width="17.5" height="17.5" fill="white" transform="translate(9.42308 8.75)"/>
</clipPath>
</defs>
</svg>
