<svg width="16" height="16" viewBox="0 0 16 16" fill="none" xmlns="http://www.w3.org/2000/svg">
<path fill-rule="evenodd" clip-rule="evenodd" d="M12.6277 0.693604C12.9799 0.691219 13.3291 0.758659 13.6552 0.892016C13.9813 1.0254 14.2776 1.22206 14.5272 1.47059L14.5285 1.47191C14.7771 1.72153 14.9738 2.01791 15.1071 2.34392C15.2404 2.66993 15.3079 3.0192 15.3055 3.37141C15.3031 3.7236 15.231 4.07197 15.0932 4.39622C14.9558 4.71958 14.7558 5.01257 14.5048 5.25837L5.69595 14.0673C5.63821 14.125 5.56602 14.1662 5.48692 14.1865L1.29123 15.2626C1.13521 15.3026 0.969656 15.2573 0.855763 15.1434C0.74187 15.0295 0.696557 14.8639 0.736573 14.7079L1.81269 10.5122C1.83297 10.4331 1.87414 10.3609 1.93188 10.3032L10.7407 1.49432C10.9866 1.24328 11.2796 1.04333 11.6029 0.905927C11.9271 0.768169 12.2754 0.695989 12.6277 0.693604ZM13.3101 1.73563C13.0955 1.64784 12.8657 1.60346 12.6338 1.60503C12.402 1.6066 12.1728 1.65409 11.9594 1.74477C11.746 1.83546 11.5527 1.96753 11.3907 2.13329L11.387 2.13705L2.66457 10.8595L1.81077 14.1884L5.13966 13.3346L13.8658 4.60844C14.0316 4.44638 14.1637 4.25309 14.2544 4.03971C14.345 3.82638 14.3925 3.59716 14.3941 3.36525C14.3956 3.13343 14.3513 2.9036 14.2636 2.68905M13.3101 1.73563C13.5244 1.82327 13.7192 1.95246 13.8834 2.11579L13.3101 1.73563ZM13.8834 2.11579C14.0467 2.27989 14.1759 2.47476 14.2636 2.68905L13.8834 2.11579Z" fill="#C0C0C0"/>
<path fill-rule="evenodd" clip-rule="evenodd" d="M10.4906 1.74609C10.6686 1.56812 10.9571 1.56812 11.1351 1.74609L14.2547 4.86567C14.4327 5.04364 14.4327 5.33219 14.2547 5.51016C14.0767 5.68813 13.7882 5.68813 13.6102 5.51016L10.4906 2.39058C10.3127 2.21261 10.3127 1.92406 10.4906 1.74609Z" fill="#C0C0C0"/>
<path fill-rule="evenodd" clip-rule="evenodd" d="M9.21791 3.01641C9.39588 2.83844 9.68442 2.83844 9.8624 3.01641L12.982 6.136C13.1599 6.31397 13.1599 6.60252 12.982 6.78049C12.804 6.95846 12.5155 6.95846 12.3375 6.78049L9.21791 3.6609C9.03993 3.48293 9.03993 3.19438 9.21791 3.01641Z" fill="#C0C0C0"/>
<path fill-rule="evenodd" clip-rule="evenodd" d="M1.9321 10.3027C2.1099 10.1246 2.39845 10.1243 2.57659 10.3021L5.69921 13.4186C5.87735 13.5964 5.87763 13.885 5.69983 14.0631C5.52204 14.2413 5.23349 14.2415 5.05534 14.0637L1.93273 10.9472C1.75458 10.7694 1.7543 10.4809 1.9321 10.3027Z" fill="#C0C0C0"/>
</svg>
