<svg width="22" height="22" viewBox="0 0 22 22" fill="none" xmlns="http://www.w3.org/2000/svg">
<path d="M7.00135 7.66905C6.4708 7.66905 5.96198 7.87984 5.58682 8.25504C5.21166 8.63025 5.0009 9.13914 5.0009 9.66976V12.3374C5.0009 12.868 5.21166 13.3769 5.58682 13.7521C5.96198 14.1273 6.4708 14.3381 7.00135 14.3381C7.53191 14.3381 8.04072 14.1273 8.41589 13.7521C8.79105 13.3769 9.0018 12.868 9.0018 12.3374V9.66976C9.0018 9.13914 8.79105 8.63025 8.41589 8.25504C8.04072 7.87984 7.53191 7.66905 7.00135 7.66905ZM7.00135 7.66905C7.53191 7.66905 8.04072 7.45826 8.41589 7.08305C8.79105 6.70784 9.0018 6.19896 9.0018 5.66833V3.00071C9.0018 2.47009 8.79105 1.96121 8.41589 1.586C8.04072 1.21079 7.53191 1 7.00135 1C6.4708 1 5.96198 1.21079 5.58682 1.586C5.21166 1.96121 5.0009 2.47009 5.0009 3.00071V5.66833C5.0009 6.19896 5.21166 6.70784 5.58682 7.08305C5.96198 7.45826 6.4708 7.66905 7.00135 7.66905ZM7.7882 19.7053C7.5919 20.2074 7.20447 20.6111 6.71092 20.8278C6.21737 21.0445 5.65802 21.0566 5.1556 20.8613C4.66014 20.6492 4.26899 20.2493 4.06799 19.7492C3.86697 19.2491 3.87251 18.6897 4.08336 18.1937L5.1236 15.6435C5.21798 15.3933 5.3615 15.1647 5.54567 14.971C5.72985 14.7773 5.95096 14.6225 6.19594 14.5156C6.44092 14.4088 6.70481 14.3521 6.97207 14.3489C7.23931 14.3457 7.50449 14.3961 7.75195 14.497C7.99942 14.598 8.22415 14.7475 8.4129 14.9368C8.60164 15.126 8.75058 15.3512 8.85092 15.5989C8.95125 15.8466 9.00095 16.112 8.99709 16.3793C8.99323 16.6466 8.93588 16.9103 8.82843 17.1551L7.7882 19.7053ZM17.1263 19.7053C17.2207 19.9554 17.3642 20.184 17.5484 20.3777C17.7326 20.5714 17.9537 20.7262 18.1986 20.8331C18.4437 20.9399 18.7075 20.9967 18.9748 20.9999C19.242 21.0031 19.5072 20.9526 19.7546 20.8517C20.0021 20.7507 20.2268 20.6012 20.4156 20.4119C20.6043 20.2227 20.7533 19.9975 20.8536 19.7498C20.9539 19.5021 21.0036 19.2367 20.9998 18.9694C20.996 18.7021 20.9386 18.4384 20.8311 18.1936L19.79 15.6425C19.6969 15.3907 19.5541 15.1602 19.3702 14.9647C19.1861 14.7693 18.9648 14.6128 18.7191 14.5046C18.4734 14.3965 18.2085 14.3389 17.9401 14.3353C17.6717 14.3316 17.4053 14.382 17.1567 14.4834C16.9082 14.5849 16.6826 14.7352 16.4934 14.9257C16.3042 15.1161 16.1551 15.3426 16.0553 15.5918C15.9554 15.8409 15.9066 16.1077 15.9119 16.3761C15.9172 16.6445 15.9764 16.9092 16.0861 17.1541L17.1263 19.7053ZM17.1263 8.9709C17.2207 8.72082 17.3642 8.4922 17.5484 8.29849C17.7326 8.10479 17.9537 7.94995 18.1986 7.84309C18.4437 7.73625 18.7075 7.67955 18.9748 7.67636C19.242 7.67317 19.5072 7.72354 19.7546 7.82451C20.0021 7.92548 20.2268 8.075 20.4156 8.26425C20.6043 8.45349 20.7533 8.67864 20.8536 8.92638C20.9539 9.17413 21.0036 9.43946 20.9998 9.70676C20.996 9.97405 20.9386 10.2378 20.8311 10.4826L19.79 13.0337C19.6969 13.2855 19.5541 13.516 19.3702 13.7115C19.1861 13.9069 18.9648 14.0634 18.7191 14.1715C18.4734 14.2797 18.2085 14.3373 17.9401 14.3409C17.6717 14.3446 17.4053 14.2942 17.1567 14.1928C16.9082 14.0913 16.6826 13.941 16.4934 13.7505C16.3042 13.5601 16.1551 13.3336 16.0553 13.0844C15.9554 12.8353 15.9066 12.5685 15.9119 12.3001C15.9172 12.0317 15.9764 11.767 16.0861 11.5221L17.1263 8.9709ZM14.2919 12.3374C14.8479 12.3128 15.3912 12.5094 15.8025 12.8844C16.214 13.2594 16.4601 13.7821 16.487 14.3381C16.4601 14.8941 16.214 15.4169 15.8025 15.7918C15.3912 16.1668 14.8479 16.3634 14.2919 16.3388H10.6342C10.0782 16.3634 9.53508 16.1668 9.12385 15.7918C8.71258 15.4168 8.46665 14.894 8.43991 14.3381C8.46665 13.7822 8.71258 13.2594 9.12385 12.8844C9.53508 12.5094 10.0782 12.3128 10.6342 12.3374H14.2919ZM1 7.66907C1 8.2662 1.23717 8.83886 1.65936 9.26108C2.08153 9.68337 2.65412 9.92052 3.25117 9.92052C3.84822 9.92052 4.42082 9.68337 4.84299 9.26108C5.26517 8.83886 5.50235 8.2662 5.50235 7.66907C5.50235 7.07194 5.26517 6.49927 4.84299 6.07703C4.42082 5.6548 3.84822 5.4176 3.25117 5.4176C2.65412 5.4176 2.08153 5.6548 1.65936 6.07703C1.23717 6.49927 1 7.07194 1 7.66907Z" stroke="#B2B2B2" stroke-width="1.2" stroke-linecap="round" stroke-linejoin="round"/>
</svg>
