<svg width="12" height="16" viewBox="0 0 12 16" fill="none" xmlns="http://www.w3.org/2000/svg">
<path d="M4.91859 13.994C5.77455 15.059 7.43275 15.3341 8.98993 14.7113L9.6573 14.4444C10.2505 14.2072 10.6078 13.5952 10.423 13.133L9.54503 10.9376C9.36019 10.4754 8.67939 10.2786 8.08618 10.5158C7.49296 10.7531 6.81217 10.5562 6.62733 10.094L5.24105 6.62763C5.05621 6.16544 5.41354 5.55344 6.00675 5.31621C6.59997 5.07897 6.9573 4.46697 6.77246 4.00478L5.91759 1.86716C5.73275 1.40498 5.05195 1.20814 4.45874 1.44538L3.79137 1.71227C2.23419 2.33502 1.24602 3.73541 1.33736 5.03915C1.6866 7.84808 3.13736 11.6908 4.91859 13.994Z" stroke="#C0C0C0" stroke-width="1.44" stroke-miterlimit="10" stroke-linecap="round" stroke-linejoin="round"/>
</svg>
