<svg width="24" height="28" viewBox="0 0 24 28" fill="none" xmlns="http://www.w3.org/2000/svg">
<path d="M6.17894 7.85051C6.17894 9.40218 6.79532 10.8903 7.89241 11.9875C8.98963 13.0845 10.4778 13.701 12.0294 13.701C13.5811 13.701 15.0693 13.0845 16.1665 11.9875C17.2635 10.8903 17.88 9.40218 17.88 7.85051C17.88 6.29887 17.2635 4.81076 16.1665 3.71356C15.0693 2.61639 13.5811 2 12.0294 2C10.4778 2 8.98963 2.61639 7.89241 3.71356C6.79532 4.81076 6.17894 6.29887 6.17894 7.85051Z" fill="#7F7F7F"/>
<path d="M2 25.402C2 22.742 3.05668 20.191 4.93756 18.3101C6.81844 16.4293 9.36942 15.3726 12.0294 15.3726C14.6895 15.3726 17.2405 16.4293 19.1214 18.3101C21.0022 20.191 22.0589 22.742 22.0589 25.402H2Z" fill="#7F7F7F"/>
<path d="M6.17894 7.85051C6.17894 9.40218 6.79532 10.8903 7.89241 11.9875C8.98963 13.0845 10.4778 13.701 12.0294 13.701C13.5811 13.701 15.0693 13.0845 16.1665 11.9875C17.2635 10.8903 17.88 9.40218 17.88 7.85051C17.88 6.29887 17.2635 4.81076 16.1665 3.71356C15.0693 2.61639 13.5811 2 12.0294 2C10.4778 2 8.98963 2.61639 7.89241 3.71356C6.79532 4.81076 6.17894 6.29887 6.17894 7.85051Z" stroke="#7F7F7F" stroke-width="3.46667" stroke-linecap="round" stroke-linejoin="round"/>
<path d="M2 25.402C2 22.742 3.05668 20.191 4.93756 18.3101C6.81844 16.4293 9.36942 15.3726 12.0294 15.3726C14.6895 15.3726 17.2405 16.4293 19.1214 18.3101C21.0022 20.191 22.0589 22.742 22.0589 25.402H2Z" stroke="#7F7F7F" stroke-width="3.46667" stroke-linecap="round" stroke-linejoin="round"/>
</svg>
