<svg width="15" height="16" viewBox="0 0 15 16" fill="none" xmlns="http://www.w3.org/2000/svg">
<path d="M3.70833 4.5C3.70833 5.42827 4.10781 6.31853 4.81882 6.97493C5.52992 7.6312 6.49438 8 7.5 8C8.50562 8 9.47008 7.6312 10.1812 6.97493C10.8921 6.31853 11.2917 5.42827 11.2917 4.5C11.2917 3.57175 10.8921 2.68151 10.1812 2.02512C9.47008 1.36875 8.50562 1 7.5 1C6.49438 1 5.52992 1.36875 4.81882 2.02512C4.10781 2.68151 3.70833 3.57175 3.70833 4.5Z" stroke="#C0C0C0" stroke-width="1.73333" stroke-linecap="round" stroke-linejoin="round"/>
<path d="M1 15C1 13.4087 1.68483 11.8825 2.90381 10.7573C4.12279 9.63213 5.77606 9 7.5 9C9.22394 9 10.8773 9.63213 12.0962 10.7573C13.3152 11.8825 14 13.4087 14 15H1Z" stroke="#C0C0C0" stroke-width="1.73333" stroke-linecap="round" stroke-linejoin="round"/>
</svg>
