<svg width="22" height="22" viewBox="0 0 22 22" fill="none" xmlns="http://www.w3.org/2000/svg">
<path fill-rule="evenodd" clip-rule="evenodd" d="M20.6483 0.0027013C18.1204 0.0100633 -0.303157 8.44575 0.0317487 9.44278C0.235509 10.0472 2.01827 10.992 3.99288 11.5413C8.45651 12.7833 9.0051 13.3287 10.2731 17.785C10.8338 19.7564 11.783 21.5316 12.3826 21.7299C12.9822 21.9271 15.3275 17.5603 17.5943 12.0256C21.9881 1.2998 22.3183 -0.00216204 20.6483 0.0027013ZM16.1781 11.2658C14.6549 14.9822 13.1038 18.0247 12.7308 18.0258C12.3578 18.0269 11.6336 16.58 11.1204 14.8095C10.4174 12.3865 9.39039 11.3655 6.96337 10.6766C5.1899 10.1738 3.73881 9.45799 3.73772 9.08499C3.73611 8.53199 9.68616 5.79265 18.6418 2.22355C19.5827 1.84881 19.8746 2.13896 19.5053 3.08204C19.1976 3.86594 17.7003 7.54832 16.1781 11.2658Z" fill="#B7B7B7"/>
</svg>
