<svg width="15" height="15" viewBox="0 0 15 15" fill="none" xmlns="http://www.w3.org/2000/svg">
<path d="M8.26218 1.45419L9.92972 5.96261H13.174C13.3376 5.95623 13.4993 6.00046 13.6367 6.08935C13.7743 6.17824 13.8809 6.30747 13.9422 6.4593C14.0035 6.61102 14.0164 6.7781 13.9792 6.93761C13.942 7.09701 13.8563 7.24106 13.7341 7.35006L10.9225 9.20685L12.4829 12.7896C12.5511 12.9536 12.5661 13.135 12.5259 13.308C12.4855 13.481 12.3921 13.6371 12.2585 13.7543C12.1251 13.8715 11.9581 13.9439 11.7813 13.9613C11.6045 13.9788 11.4267 13.9403 11.2728 13.8515L7.50195 11.7309L3.73214 13.8515C3.57836 13.9407 3.40036 13.9795 3.22333 13.9623C3.0462 13.945 2.87912 13.8726 2.74535 13.7554C2.61158 13.6381 2.51803 13.4818 2.4777 13.3085C2.43747 13.1353 2.45261 12.9537 2.52095 12.7896L4.07927 9.20685L1.2676 7.35006C1.14496 7.24149 1.05888 7.09755 1.02125 6.93815C0.983616 6.77875 0.996161 6.61157 1.05737 6.45952C1.11847 6.30758 1.2251 6.17814 1.36265 6.08924C1.50021 6.00024 1.66199 5.95601 1.8256 5.96261H5.06985L6.73955 1.45419C6.81374 1.31685 6.92361 1.20212 7.05759 1.12209C7.19169 1.04217 7.34482 1 7.50087 1C7.65702 1 7.81015 1.04217 7.94414 1.12209C8.07823 1.20212 8.18811 1.31685 8.26218 1.45419Z" stroke="#C0C0C0" stroke-width="1.62212" stroke-linecap="round" stroke-linejoin="round"/>
</svg>
