<svg width="13" height="14" viewBox="0 0 13 14" fill="none" xmlns="http://www.w3.org/2000/svg">
<g clip-path="url(#clip0_43_602)">
<path d="M7.37831 0.440618L1.21855 0.44306C1.00319 0.443146 0.796711 0.53536 0.644532 0.699451C0.492351 0.863542 0.406934 1.08609 0.407071 1.31806L0.41379 12.6888C0.413927 12.9208 0.499607 13.1432 0.651982 13.3072C0.804354 13.4712 1.01095 13.5632 1.2263 13.5632L11.7822 13.559C11.9975 13.5589 12.204 13.4666 12.3562 13.3026C12.5084 13.1385 12.5938 12.9159 12.5937 12.684L12.5897 6.04871C12.5895 5.81692 12.5039 5.59461 12.3517 5.4307L7.95227 0.696378C7.79995 0.532583 7.59349 0.440591 7.37831 0.440618Z" stroke="#3A3A3A" stroke-width="1.06774" stroke-linecap="round" stroke-linejoin="round"/>
<path d="M7.71423 0.518183L7.71677 4.81283C7.71691 5.04479 7.80257 5.26727 7.95494 5.43124C8.10731 5.59521 8.31394 5.68726 8.52928 5.68718L12.5162 5.6856" stroke="#3A3A3A" stroke-width="1.06774" stroke-linecap="round" stroke-linejoin="round"/>
<path d="M3.6604 10.0625L10.1563 10.0599" stroke="#3A3A3A" stroke-width="1.06774" stroke-linecap="round" stroke-linejoin="round"/>
<path d="M3.65869 7.43872L6.50066 7.43759" stroke="#3A3A3A" stroke-width="1.06774" stroke-linecap="round" stroke-linejoin="round"/>
</g>
<defs>
<clipPath id="clip0_43_602">
<rect width="12.9919" height="13.9948" fill="white" transform="matrix(1 -0.000396521 -0.000590893 -1 0.00830078 13.9998)"/>
</clipPath>
</defs>
</svg>
