<svg width="25" height="25" viewBox="0 0 25 25" fill="none" xmlns="http://www.w3.org/2000/svg">
<path d="M16.3315 10.1986L12.2647 15.6238C12.1989 15.7116 12.1149 15.7841 12.0186 15.8367C11.9221 15.8892 11.8157 15.9204 11.7062 15.9281C11.5968 15.9359 11.487 15.92 11.3842 15.8816C11.2813 15.8432 11.1881 15.7832 11.1104 15.7055L8.66997 13.2648M11.204 1.62167C11.3601 1.42761 11.5576 1.27102 11.7821 1.16343C12.0067 1.05585 12.2524 1 12.5014 1C12.7503 1 12.9961 1.05585 13.2206 1.16343C13.4452 1.27102 13.6426 1.42761 13.7987 1.62167L15.3433 3.5442C15.5182 3.76231 15.7453 3.93283 16.0034 4.04C16.2615 4.14718 16.5426 4.18757 16.8204 4.15745L19.2721 3.89069C19.5203 3.8631 19.7715 3.89172 20.0071 3.97441C20.2428 4.05712 20.4568 4.19179 20.6334 4.36846C20.8099 4.54512 20.9446 4.75926 21.0272 4.99501C21.1098 5.23077 21.1384 5.48211 21.1109 5.73043L20.8442 8.18342C20.8141 8.46144 20.8545 8.74258 20.9616 9.00088C21.0688 9.25918 21.2392 9.48631 21.4572 9.66134L23.3787 11.2067C23.5727 11.3629 23.7292 11.5605 23.8366 11.7851C23.9442 12.0098 24 12.2557 24 12.5047C24 12.7538 23.9442 12.9997 23.8366 13.2244C23.7292 13.449 23.5727 13.6467 23.3787 13.8028L21.451 15.341C21.2331 15.5163 21.0628 15.7437 20.9556 16.0021C20.8485 16.2606 20.8081 16.5419 20.8381 16.82L21.1047 19.273C21.1325 19.5213 21.104 19.7727 21.0215 20.0086C20.9388 20.2444 20.8043 20.4587 20.6277 20.6354C20.4511 20.8121 20.2369 20.9467 20.0012 21.0294C19.7655 21.112 19.5142 21.1405 19.266 21.1127L16.8143 20.8459C16.5364 20.8157 16.2554 20.856 15.9972 20.9633C15.739 21.0705 15.512 21.241 15.3372 21.4592L13.7987 23.3746C13.6428 23.5687 13.4453 23.7255 13.2207 23.8333C12.9962 23.9409 12.7504 23.9968 12.5014 23.9968C12.2524 23.9968 12.0066 23.9409 11.782 23.8333C11.5575 23.7255 11.36 23.5687 11.204 23.3746L9.6605 21.453C9.48535 21.2349 9.25815 21.0645 8.99982 20.9572C8.7415 20.8501 8.46037 20.8097 8.18234 20.8398L5.73066 21.1066C5.48239 21.1346 5.23102 21.1063 4.99521 21.0237C4.75939 20.9411 4.54521 20.8065 4.36854 20.6297C4.19189 20.4529 4.0573 20.2386 3.97478 20.0027C3.89226 19.7667 3.86394 19.5152 3.8919 19.2668L4.15852 16.8138C4.18862 16.5357 4.14825 16.2543 4.04113 15.996C3.93401 15.7375 3.7636 15.5102 3.5456 15.3349L1.62511 13.7905C1.43099 13.6346 1.27434 13.4369 1.16669 13.2122C1.05905 12.9876 1.00317 12.7417 1.00317 12.4925C1.00317 12.2434 1.05905 11.9974 1.16669 11.7727C1.27434 11.5481 1.43099 11.3505 1.62511 11.1944L3.5456 9.64908C3.76367 9.47412 3.93415 9.24698 4.04128 8.98866C4.1484 8.73035 4.18872 8.44918 4.15852 8.17115L3.8919 5.71816C3.86413 5.46981 3.8926 5.21838 3.97519 4.98253C4.05777 4.74669 4.19237 4.53246 4.36898 4.35575C4.5456 4.17904 4.75971 4.04438 4.99543 3.96175C5.23115 3.87912 5.48243 3.85063 5.73066 3.87842L8.18234 4.14518C8.46036 4.17519 8.74146 4.13476 8.99977 4.02759C9.25807 3.92043 9.48528 3.74999 9.6605 3.53194L11.204 1.62167Z" stroke="#00C2FF" stroke-width="1.22584" stroke-linecap="round" stroke-linejoin="round"/>
</svg>
